<svg width="1125" height="196" fill="none" xmlns="http://www.w3.org/2000/svg"><rect x="685" y="116" width="229" height="80" rx="40" fill="#E5EBFB"/><circle cx="725" cy="156" r="24" fill="#235ADC"/><mask id="a" style="mask-type:alpha" maskUnits="userSpaceOnUse" x="713" y="144" width="24" height="24"><path fill="#D9D9D9" d="M713 144h24v24h-24z"/></mask><g mask="url(#a)"><path d="m725 165-7-3.8v-6l-4-2.2 11-6 11 6v8h-2v-6.9l-2 1.1v6l-7 3.8Zm0-8.3 6.85-3.7-6.85-3.7-6.85 3.7 6.85 3.7Zm0 6.025 5-2.7v-3.775l-5 2.75-5-2.75v3.775l5 2.7Z" fill="#E5EBFB"/></g><path d="M765.775 150.88v1.488h-2.96V162h-1.824v-9.632h-2.976v-1.488h7.76Zm3.671 3.584a2.824 2.824 0 0 1 1.056-1.04c.448-.256.976-.384 1.584-.384v1.888h-.464c-.715 0-1.259.181-1.632.544-.363.363-.544.992-.544 1.888V162h-1.824v-8.816h1.824v1.28Zm3.709 3.088c0-.885.181-1.669.544-2.352a4.052 4.052 0 0 1 1.504-1.584 4.028 4.028 0 0 1 2.112-.576c.693 0 1.296.139 1.808.416.522.267.938.603 1.248 1.008v-1.28h1.84V162h-1.84v-1.312c-.31.416-.731.763-1.264 1.04-.534.277-1.142.416-1.824.416a3.914 3.914 0 0 1-2.08-.576 4.272 4.272 0 0 1-1.504-1.632c-.363-.704-.544-1.499-.544-2.384Zm7.216.032c0-.608-.128-1.136-.384-1.584a2.593 2.593 0 0 0-.976-1.024 2.574 2.574 0 0 0-1.312-.352c-.47 0-.907.117-1.312.352-.406.224-.736.56-.992 1.008-.246.437-.368.96-.368 1.568 0 .608.122 1.141.368 1.6.256.459.586.811.992 1.056a2.627 2.627 0 0 0 2.624 0c.405-.235.73-.576.976-1.024.256-.459.384-.992.384-1.6Zm5.163-5.568c-.33 0-.608-.112-.832-.336a1.13 1.13 0 0 1-.336-.832c0-.331.112-.608.336-.832.224-.224.502-.336.832-.336.32 0 .592.112.816.336.224.224.336.501.336.832 0 .331-.112.608-.336.832a1.11 1.11 0 0 1-.816.336Zm.896 1.168V162h-1.824v-8.816h1.824Zm6.843-.144c.693 0 1.312.144 1.856.432.555.288.987.715 1.296 1.28.309.565.464 1.248.464 2.048v5.2h-1.808v-4.928c0-.789-.197-1.392-.592-1.808-.395-.427-.933-.64-1.616-.64s-1.227.213-1.632.64c-.395.416-.592 1.019-.592 1.808V162h-1.824v-8.816h1.824v1.008a3.033 3.033 0 0 1 1.136-.848 3.706 3.706 0 0 1 1.488-.304Zm6.871-1.024a1.13 1.13 0 0 1-.832-.336 1.13 1.13 0 0 1-.336-.832c0-.331.112-.608.336-.832a1.13 1.13 0 0 1 .832-.336c.32 0 .592.112.816.336.224.224.336.501.336.832 0 .331-.112.608-.336.832a1.11 1.11 0 0 1-.816.336Zm.896 1.168V162h-1.824v-8.816h1.824Zm6.842-.144c.694 0 1.312.144 1.856.432.555.288.987.715 1.296 1.28.31.565.464 1.248.464 2.048v5.2h-1.808v-4.928c0-.789-.197-1.392-.592-1.808-.394-.427-.933-.64-1.616-.64-.682 0-1.226.213-1.632.64-.394.416-.592 1.019-.592 1.808V162h-1.824v-8.816h1.824v1.008a3.04 3.04 0 0 1 1.136-.848c.47-.203.966-.304 1.488-.304Zm9.495 0c.683 0 1.285.139 1.808.416.533.267.949.603 1.248 1.008v-1.28h1.84v8.96c0 .811-.171 1.531-.512 2.16a3.671 3.671 0 0 1-1.488 1.504c-.64.363-1.408.544-2.304.544-1.195 0-2.187-.283-2.976-.848-.789-.555-1.237-1.312-1.344-2.272h1.808c.139.459.432.827.88 1.104.459.288 1.003.432 1.632.432.736 0 1.328-.224 1.776-.672.459-.448.688-1.099.688-1.952v-1.472c-.309.416-.731.768-1.264 1.056-.523.277-1.12.416-1.792.416a4.028 4.028 0 0 1-2.112-.576 4.28 4.28 0 0 1-1.504-1.632c-.363-.704-.544-1.499-.544-2.384 0-.885.181-1.669.544-2.352a4.059 4.059 0 0 1 3.616-2.16Zm3.056 4.544c0-.608-.128-1.136-.384-1.584a2.586 2.586 0 0 0-.976-1.024 2.571 2.571 0 0 0-1.312-.352c-.469 0-.907.117-1.312.352a2.58 2.58 0 0 0-.992 1.008c-.245.437-.368.96-.368 1.568 0 .608.123 1.141.368 1.6.256.459.587.811.992 1.056a2.627 2.627 0 0 0 2.624 0c.405-.235.731-.576.976-1.024.256-.459.384-.992.384-1.6Zm12.056 4.528c-.747 0-1.419-.128-2.016-.384-.597-.267-1.067-.64-1.408-1.12-.341-.48-.512-1.04-.512-1.68h1.952c.043.48.229.875.56 1.184.341.309.816.464 1.424.464.629 0 1.12-.149 1.472-.448.352-.309.528-.704.528-1.184 0-.373-.112-.677-.336-.912a2.102 2.102 0 0 0-.816-.544c-.32-.128-.768-.267-1.344-.416a14.03 14.03 0 0 1-1.776-.576 3.008 3.008 0 0 1-1.152-.928c-.32-.416-.48-.971-.48-1.664 0-.64.16-1.2.48-1.68.32-.48.768-.848 1.344-1.104.576-.256 1.243-.384 2-.384 1.077 0 1.957.272 2.64.816.693.533 1.077 1.269 1.152 2.208h-2.016c-.032-.405-.224-.752-.576-1.04-.352-.288-.816-.432-1.392-.432-.523 0-.949.133-1.28.4-.331.267-.496.651-.496 1.152 0 .341.101.624.304.848.213.213.48.384.8.512.32.128.757.267 1.312.416.736.203 1.333.405 1.792.608.469.203.864.517 1.184.944.331.416.496.976.496 1.68a3 3 0 0 1-.464 1.6c-.299.501-.741.907-1.328 1.216-.576.299-1.259.448-2.048.448Zm14.072-4.736c0 .331-.021.629-.064.896h-6.736c.054.704.315 1.269.784 1.696.47.427 1.046.64 1.728.64.982 0 1.675-.411 2.08-1.232h1.968a3.994 3.994 0 0 1-1.456 2c-.693.512-1.557.768-2.592.768-.842 0-1.6-.187-2.272-.56a4.185 4.185 0 0 1-1.568-1.6c-.373-.693-.56-1.493-.56-2.4 0-.907.182-1.701.544-2.384a3.942 3.942 0 0 1 1.552-1.6c.672-.373 1.44-.56 2.304-.56.832 0 1.574.181 2.224.544a3.828 3.828 0 0 1 1.52 1.536c.363.651.544 1.403.544 2.256Zm-1.904-.576c-.01-.672-.25-1.211-.72-1.616-.469-.405-1.05-.608-1.744-.608-.629 0-1.168.203-1.616.608-.448.395-.714.933-.8 1.616h4.88Zm6.899 5.344c-.693 0-1.317-.123-1.872-.368-.544-.256-.976-.597-1.296-1.024a2.596 2.596 0 0 1-.512-1.456h1.888c.032.373.208.688.528.944.331.245.742.368 1.232.368.512 0 .907-.096 1.184-.288.288-.203.432-.459.432-.768 0-.331-.16-.576-.48-.736-.309-.16-.805-.336-1.488-.528-.661-.181-1.2-.357-1.616-.528a2.91 2.91 0 0 1-1.088-.784c-.298-.352-.448-.816-.448-1.392 0-.469.139-.896.416-1.28.278-.395.672-.704 1.184-.928.523-.224 1.12-.336 1.792-.336 1.003 0 1.808.256 2.416.768.619.501.95 1.189.992 2.064h-1.824a1.3 1.3 0 0 0-.48-.944c-.288-.235-.677-.352-1.168-.352-.48 0-.848.091-1.104.272a.841.841 0 0 0-.384.72c0 .235.086.432.256.592.171.16.379.288.624.384.246.085.608.197 1.088.336.64.171 1.163.347 1.568.528a2.84 2.84 0 0 1 1.072.768c.299.341.454.795.464 1.36 0 .501-.138.949-.416 1.344-.277.395-.672.704-1.184.928-.501.224-1.093.336-1.776.336Zm8.547 0c-.693 0-1.317-.123-1.872-.368-.544-.256-.976-.597-1.296-1.024a2.588 2.588 0 0 1-.512-1.456h1.888c.032.373.208.688.528.944.331.245.741.368 1.232.368.512 0 .907-.096 1.184-.288.288-.203.432-.459.432-.768 0-.331-.16-.576-.48-.736-.309-.16-.805-.336-1.488-.528-.661-.181-1.2-.357-1.616-.528a2.902 2.902 0 0 1-1.088-.784c-.299-.352-.448-.816-.448-1.392 0-.469.139-.896.416-1.28.277-.395.672-.704 1.184-.928.523-.224 1.12-.336 1.792-.336 1.003 0 1.808.256 2.416.768.619.501.949 1.189.992 2.064h-1.824a1.3 1.3 0 0 0-.48-.944c-.288-.235-.677-.352-1.168-.352-.48 0-.848.091-1.104.272a.841.841 0 0 0-.384.72c0 .235.085.432.256.592.171.16.379.288.624.384.245.085.608.197 1.088.336.64.171 1.163.347 1.568.528.416.171.773.427 1.072.768.299.341.453.795.464 1.36 0 .501-.139.949-.416 1.344-.277.395-.672.704-1.184.928-.501.224-1.093.336-1.776.336Zm6.275-10.128a1.13 1.13 0 0 1-.832-.336 1.13 1.13 0 0 1-.336-.832c0-.331.112-.608.336-.832a1.13 1.13 0 0 1 .832-.336c.32 0 .592.112.816.336.224.224.336.501.336.832 0 .331-.112.608-.336.832a1.11 1.11 0 0 1-.816.336Zm.896 1.168V162h-1.824v-8.816h1.824Zm6.219 8.96c-.832 0-1.584-.187-2.256-.56a4.149 4.149 0 0 1-1.584-1.6c-.384-.693-.576-1.493-.576-2.4 0-.896.197-1.691.592-2.384a4.083 4.083 0 0 1 1.616-1.6c.682-.373 1.445-.56 2.288-.56.842 0 1.605.187 2.288.56a4.095 4.095 0 0 1 1.616 1.6c.394.693.592 1.488.592 2.384 0 .896-.203 1.691-.608 2.384a4.258 4.258 0 0 1-1.664 1.616 4.789 4.789 0 0 1-2.304.56Zm0-1.584c.469 0 .906-.112 1.312-.336.416-.224.752-.56 1.008-1.008.256-.448.384-.992.384-1.632 0-.64-.123-1.179-.368-1.616a2.479 2.479 0 0 0-.976-1.008 2.672 2.672 0 0 0-1.312-.336c-.47 0-.907.112-1.312.336-.395.224-.71.56-.944 1.008-.235.437-.352.976-.352 1.616 0 .949.24 1.685.72 2.208.49.512 1.104.768 1.84.768Zm10.827-7.52c.693 0 1.312.144 1.856.432.555.288.987.715 1.296 1.28.309.565.464 1.248.464 2.048v5.2h-1.808v-4.928c0-.789-.197-1.392-.592-1.808-.395-.427-.933-.64-1.616-.64s-1.227.213-1.632.64c-.395.416-.592 1.019-.592 1.808V162h-1.824v-8.816h1.824v1.008a3.033 3.033 0 0 1 1.136-.848 3.706 3.706 0 0 1 1.488-.304Zm9.143 9.104c-.694 0-1.318-.123-1.872-.368-.544-.256-.976-.597-1.296-1.024a2.588 2.588 0 0 1-.512-1.456h1.888c.032.373.208.688.528.944.33.245.741.368 1.232.368.512 0 .906-.096 1.184-.288.288-.203.432-.459.432-.768 0-.331-.16-.576-.48-.736-.31-.16-.806-.336-1.488-.528-.662-.181-1.2-.357-1.616-.528a2.902 2.902 0 0 1-1.088-.784c-.299-.352-.448-.816-.448-1.392 0-.469.138-.896.416-1.28.277-.395.672-.704 1.184-.928.522-.224 1.12-.336 1.792-.336 1.002 0 1.808.256 2.416.768.618.501.949 1.189.992 2.064h-1.824a1.3 1.3 0 0 0-.48-.944c-.288-.235-.678-.352-1.168-.352-.48 0-.848.091-1.104.272a.841.841 0 0 0-.384.72c0 .235.085.432.256.592.17.16.378.288.624.384.245.085.608.197 1.088.336.64.171 1.162.347 1.568.528.416.171.773.427 1.072.768.298.341.453.795.464 1.36 0 .501-.139.949-.416 1.344-.278.395-.672.704-1.184.928-.502.224-1.094.336-1.776.336Z" fill="#07122C"/><rect x="427" y="116" width="198" height="80" rx="40" fill="#E5EBFB"/><circle cx="467" cy="156" r="24" fill="#235ADC"/><mask id="b" style="mask-type:alpha" maskUnits="userSpaceOnUse" x="455" y="144" width="24" height="24"><path fill="#D9D9D9" d="M455 144h24v24h-24z"/></mask><g mask="url(#b)"><path d="m460.65 154.027 1.95.825a25.2 25.2 0 0 1 .725-1.35c.25-.434.525-.867.825-1.3l-1.4-.275-2.1 2.1Zm3.55 2.075 2.85 2.825c.7-.267 1.45-.675 2.25-1.225s1.55-1.175 2.25-1.875a13.48 13.48 0 0 0 2.738-3.887c.658-1.426.945-2.738.862-3.938-1.2-.084-2.517.204-3.95.862a13.397 13.397 0 0 0-3.9 2.738c-.7.7-1.325 1.45-1.875 2.25s-.958 1.55-1.225 2.25Zm4.45-1.625a1.924 1.924 0 0 1-.575-1.413c0-.558.192-1.029.575-1.412.383-.384.858-.575 1.425-.575.567 0 1.042.191 1.425.575.383.383.575.854.575 1.412 0 .558-.192 1.029-.575 1.413-.383.383-.858.575-1.425.575-.567 0-1.042-.192-1.425-.575Zm.475 8.025 2.1-2.1-.275-1.4c-.433.3-.867.57-1.3.812a33.85 33.85 0 0 1-1.35.713l.825 1.975Zm7.825-16.325a11.513 11.513 0 0 1-.587 5.887c-.709 1.908-1.93 3.729-3.663 5.463l.5 2.475c.067.333.05.658-.05.975-.1.316-.267.591-.5.825l-4.2 4.2-2.1-4.925-4.275-4.275-4.925-2.1 4.175-4.2c.233-.234.513-.4.838-.5.325-.1.654-.117.987-.05l2.475.5c1.733-1.734 3.55-2.959 5.45-3.675 1.9-.717 3.858-.917 5.875-.6Zm-18.025 13.8c.583-.584 1.296-.88 2.137-.888.842-.008 1.555.279 2.138.863.583.583.871 1.295.862 2.137-.008.842-.304 1.554-.887 2.138-.417.416-1.112.775-2.087 1.075-.975.3-2.321.566-4.038.8.233-1.717.5-3.063.8-4.038.3-.975.658-1.671 1.075-2.087Zm1.425 1.4c-.167.166-.333.471-.5.913a6.448 6.448 0 0 0-.35 1.337c.45-.067.896-.179 1.338-.337.441-.159.745-.322.912-.488.2-.2.308-.442.325-.725a.905.905 0 0 0-.275-.725.948.948 0 0 0-.725-.288 1.033 1.033 0 0 0-.725.313Z" fill="#E5EBFB"/></g><path d="M506.344 162.626a6.588 6.588 0 0 1-3.222-.81 6.24 6.24 0 0 1-2.322-2.286c-.564-.984-.846-2.088-.846-3.312 0-1.224.282-2.322.846-3.294a6.105 6.105 0 0 1 2.322-2.268 6.475 6.475 0 0 1 3.222-.828c1.176 0 2.25.276 3.222.828a5.942 5.942 0 0 1 2.322 2.268c.564.972.846 2.07.846 3.294 0 1.224-.282 2.328-.846 3.312a6.07 6.07 0 0 1-2.322 2.286c-.972.54-2.046.81-3.222.81Zm0-1.782c.828 0 1.566-.186 2.214-.558a3.945 3.945 0 0 0 1.512-1.62c.372-.708.558-1.524.558-2.448 0-.924-.186-1.734-.558-2.43a3.826 3.826 0 0 0-1.512-1.602c-.648-.372-1.386-.558-2.214-.558-.828 0-1.566.186-2.214.558a3.942 3.942 0 0 0-1.53 1.602c-.36.696-.54 1.506-.54 2.43 0 .924.18 1.74.54 2.448a4.067 4.067 0 0 0 1.53 1.62c.648.372 1.386.558 2.214.558Zm13.413-8.424c.78 0 1.476.162 2.088.486.624.324 1.11.804 1.458 1.44.348.636.522 1.404.522 2.304v5.85h-2.034v-5.544c0-.888-.222-1.566-.666-2.034-.444-.48-1.05-.72-1.818-.72s-1.38.24-1.836.72c-.444.468-.666 1.146-.666 2.034v5.544h-2.052v-9.918h2.052v1.134a3.412 3.412 0 0 1 1.278-.954 4.178 4.178 0 0 1 1.674-.342Zm8.738 1.638c.348-.48.822-.87 1.422-1.17a4.413 4.413 0 0 1 2.034-.468c.876 0 1.668.21 2.376.63.708.42 1.266 1.02 1.674 1.8.408.768.612 1.65.612 2.646s-.204 1.89-.612 2.682a4.63 4.63 0 0 1-1.692 1.836 4.439 4.439 0 0 1-2.358.648c-.768 0-1.452-.15-2.052-.45-.588-.3-1.056-.684-1.404-1.152v1.44h-2.052v-13.32h2.052v4.878Zm6.03 3.438c0-.684-.144-1.272-.432-1.764a2.748 2.748 0 0 0-1.116-1.134 2.896 2.896 0 0 0-1.476-.396 2.96 2.96 0 0 0-1.476.396 3.033 3.033 0 0 0-1.116 1.152c-.276.504-.414 1.098-.414 1.782 0 .684.138 1.284.414 1.8.288.504.66.888 1.116 1.152.468.264.96.396 1.476.396.528 0 1.02-.132 1.476-.396.468-.276.84-.672 1.116-1.188.288-.516.432-1.116.432-1.8Zm8.419 5.166c-.936 0-1.782-.21-2.538-.63a4.67 4.67 0 0 1-1.782-1.8c-.432-.78-.648-1.68-.648-2.7 0-1.008.222-1.902.666-2.682a4.6 4.6 0 0 1 1.818-1.8c.768-.42 1.626-.63 2.574-.63s1.806.21 2.574.63a4.6 4.6 0 0 1 1.818 1.8c.444.78.666 1.674.666 2.682s-.228 1.902-.684 2.682a4.783 4.783 0 0 1-1.872 1.818c-.78.42-1.644.63-2.592.63Zm0-1.782c.528 0 1.02-.126 1.476-.378.468-.252.846-.63 1.134-1.134.288-.504.432-1.116.432-1.836s-.138-1.326-.414-1.818c-.276-.504-.642-.882-1.098-1.134a3.003 3.003 0 0 0-1.476-.378c-.528 0-1.02.126-1.476.378-.444.252-.798.63-1.062 1.134-.264.492-.396 1.098-.396 1.818 0 1.068.27 1.896.81 2.484.552.576 1.242.864 2.07.864Zm6.493-3.384c0-.996.204-1.878.612-2.646.42-.768.984-1.362 1.692-1.782a4.532 4.532 0 0 1 2.376-.648c.78 0 1.458.156 2.034.468.588.3 1.056.678 1.404 1.134v-1.44h2.07v9.918h-2.07v-1.476c-.348.468-.822.858-1.422 1.17-.6.312-1.284.468-2.052.468a4.406 4.406 0 0 1-2.34-.648 4.81 4.81 0 0 1-1.692-1.836c-.408-.792-.612-1.686-.612-2.682Zm8.118.036c0-.684-.144-1.278-.432-1.782a2.907 2.907 0 0 0-1.098-1.152 2.896 2.896 0 0 0-1.476-.396c-.528 0-1.02.132-1.476.396-.456.252-.828.63-1.116 1.134-.276.492-.414 1.08-.414 1.764 0 .684.138 1.284.414 1.8.288.516.66.912 1.116 1.188.468.264.96.396 1.476.396.528 0 1.02-.132 1.476-.396a2.907 2.907 0 0 0 1.098-1.152c.288-.516.432-1.116.432-1.8Zm6.817-3.51c.3-.504.696-.894 1.188-1.17.504-.288 1.098-.432 1.782-.432v2.124h-.522c-.804 0-1.416.204-1.836.612-.408.408-.612 1.116-.612 2.124v5.22h-2.052v-9.918h2.052v1.44Zm4.172 3.474c0-.996.204-1.878.612-2.646a4.564 4.564 0 0 1 4.086-2.43 4.51 4.51 0 0 1 1.908.432c.636.276 1.14.648 1.512 1.116v-4.788h2.07v13.32h-2.07v-1.494c-.336.48-.804.876-1.404 1.188-.588.312-1.266.468-2.034.468a4.532 4.532 0 0 1-2.376-.648 4.81 4.81 0 0 1-1.692-1.836c-.408-.792-.612-1.686-.612-2.682Zm8.118.036c0-.684-.144-1.278-.432-1.782a2.907 2.907 0 0 0-1.098-1.152 2.896 2.896 0 0 0-1.476-.396c-.528 0-1.02.132-1.476.396-.456.252-.828.63-1.116 1.134-.276.492-.414 1.08-.414 1.764 0 .684.138 1.284.414 1.8.288.516.66.912 1.116 1.188.468.264.96.396 1.476.396.528 0 1.02-.132 1.476-.396a2.907 2.907 0 0 0 1.098-1.152c.288-.516.432-1.116.432-1.8Zm5.809-6.264c-.372 0-.684-.126-.936-.378a1.271 1.271 0 0 1-.378-.936c0-.372.126-.684.378-.936s.564-.378.936-.378c.36 0 .666.126.918.378s.378.564.378.936c0 .372-.126.684-.378.936a1.25 1.25 0 0 1-.918.378Zm1.008 1.314v9.918h-2.052v-9.918h2.052Zm7.698-.162c.78 0 1.476.162 2.088.486.624.324 1.11.804 1.458 1.44.348.636.522 1.404.522 2.304v5.85h-2.034v-5.544c0-.888-.222-1.566-.666-2.034-.444-.48-1.05-.72-1.818-.72s-1.38.24-1.836.72c-.444.468-.666 1.146-.666 2.034v5.544h-2.052v-9.918h2.052v1.134a3.412 3.412 0 0 1 1.278-.954 4.178 4.178 0 0 1 1.674-.342Zm10.682 0c.768 0 1.446.156 2.034.468.6.3 1.068.678 1.404 1.134v-1.44h2.07v10.08c0 .912-.192 1.722-.576 2.43a4.133 4.133 0 0 1-1.674 1.692c-.72.408-1.584.612-2.592.612-1.344 0-2.46-.318-3.348-.954-.888-.624-1.392-1.476-1.512-2.556h2.034c.156.516.486.93.99 1.242.516.324 1.128.486 1.836.486.828 0 1.494-.252 1.998-.756.516-.504.774-1.236.774-2.196v-1.656c-.348.468-.822.864-1.422 1.188-.588.312-1.26.468-2.016.468a4.532 4.532 0 0 1-2.376-.648 4.81 4.81 0 0 1-1.692-1.836c-.408-.792-.612-1.686-.612-2.682s.204-1.878.612-2.646c.42-.768.984-1.362 1.692-1.782a4.532 4.532 0 0 1 2.376-.648Zm3.438 5.112c0-.684-.144-1.278-.432-1.782a2.907 2.907 0 0 0-1.098-1.152 2.896 2.896 0 0 0-1.476-.396c-.528 0-1.02.132-1.476.396-.456.252-.828.63-1.116 1.134-.276.492-.414 1.08-.414 1.764 0 .684.138 1.284.414 1.8.288.516.66.912 1.116 1.188.468.264.96.396 1.476.396.528 0 1.02-.132 1.476-.396a2.907 2.907 0 0 0 1.098-1.152c.288-.516.432-1.116.432-1.8Z" fill="#07122C"/><rect x="103" y="116" width="264" height="80" rx="40" fill="#E5EBFB"/><circle cx="143" cy="156" r="24" fill="#235ADC"/><mask id="c" style="mask-type:alpha" maskUnits="userSpaceOnUse" x="131" y="144" width="24" height="24"><path fill="#D9D9D9" d="M131 144h24v24h-24z"/></mask><g mask="url(#c)"><path d="M136.1 160.05a8.212 8.212 0 0 1-.825-1.95 7.711 7.711 0 0 1-.275-2.05c0-2.233.775-4.133 2.325-5.7 1.55-1.567 3.442-2.35 5.675-2.35h.175l-1.6-1.6 1.4-1.4 4 4-4 4-1.4-1.4 1.6-1.6H143c-1.667 0-3.083.587-4.25 1.762-1.167 1.175-1.75 2.605-1.75 4.288 0 .433.05.858.15 1.275.1.417.25.825.45 1.225l-1.5 1.5Zm6.925 6.95-4-4 4-4 1.4 1.4-1.6 1.6H143c1.667 0 3.083-.587 4.25-1.762 1.167-1.175 1.75-2.605 1.75-4.288 0-.433-.05-.858-.15-1.275a5.71 5.71 0 0 0-.45-1.225l1.5-1.5c.367.633.642 1.283.825 1.95.183.667.275 1.35.275 2.05 0 2.233-.775 4.133-2.325 5.7-1.55 1.567-3.442 2.35-5.675 2.35h-.175l1.6 1.6-1.4 1.4Z" fill="#D3DEF8"/></g><path d="M180.14 145.067c0-1.156.266-2.193.799-3.111a5.766 5.766 0 0 1 2.193-2.142 6.116 6.116 0 0 1 3.043-.782c1.258 0 2.374.312 3.349.935.986.612 1.7 1.485 2.142 2.618h-2.329c-.306-.623-.731-1.088-1.275-1.394-.544-.306-1.173-.459-1.887-.459-.782 0-1.479.176-2.091.527a3.721 3.721 0 0 0-1.445 1.513c-.34.657-.51 1.422-.51 2.295s.17 1.638.51 2.295a3.843 3.843 0 0 0 1.445 1.53c.612.351 1.309.527 2.091.527.714 0 1.343-.153 1.887-.459.544-.306.969-.771 1.275-1.394h2.329c-.442 1.133-1.156 2.006-2.142 2.618-.975.612-2.091.918-3.349.918-1.111 0-2.125-.255-3.043-.765a5.891 5.891 0 0 1-2.193-2.159c-.533-.918-.799-1.955-.799-3.111Zm17.857 6.086c-.884 0-1.683-.198-2.397-.595a4.413 4.413 0 0 1-1.683-1.7c-.408-.737-.612-1.587-.612-2.55 0-.952.21-1.796.629-2.533a4.351 4.351 0 0 1 1.717-1.7c.726-.397 1.536-.595 2.431-.595.896 0 1.706.198 2.431.595a4.338 4.338 0 0 1 1.717 1.7c.42.737.629 1.581.629 2.533s-.215 1.796-.646 2.533a4.51 4.51 0 0 1-1.768 1.717c-.736.397-1.552.595-2.448.595Zm0-1.683c.499 0 .964-.119 1.394-.357a2.703 2.703 0 0 0 1.071-1.071c.272-.476.408-1.054.408-1.734 0-.68-.13-1.252-.391-1.717a2.621 2.621 0 0 0-1.037-1.071 2.833 2.833 0 0 0-1.394-.357c-.498 0-.963.119-1.394.357-.419.238-.753.595-1.003 1.071-.249.465-.374 1.037-.374 1.717 0 1.009.255 1.791.765 2.346.522.544 1.173.816 1.955.816Zm11.504-7.99c.737 0 1.394.153 1.972.459a3.254 3.254 0 0 1 1.377 1.36c.329.601.493 1.326.493 2.176V151h-1.921v-5.236c0-.839-.21-1.479-.629-1.921-.419-.453-.992-.68-1.717-.68-.725 0-1.303.227-1.734.68-.419.442-.629 1.082-.629 1.921V151h-1.938v-9.367h1.938v1.071c.317-.385.72-.686 1.207-.901a3.954 3.954 0 0 1 1.581-.323Zm8.575 1.734v5.185c0 .351.079.606.238.765.17.147.453.221.85.221h1.19V151h-1.53c-.873 0-1.541-.204-2.006-.612-.465-.408-.697-1.071-.697-1.989v-5.185h-1.105v-1.581h1.105v-2.329h1.955v2.329h2.278v1.581h-2.278Zm5.05-2.822c-.351 0-.646-.119-.884-.357a1.201 1.201 0 0 1-.357-.884c0-.351.119-.646.357-.884s.533-.357.884-.357c.34 0 .629.119.867.357s.357.533.357.884-.119.646-.357.884a1.18 1.18 0 0 1-.867.357Zm.952 1.241V151h-1.938v-9.367h1.938Zm7.271-.153c.736 0 1.394.153 1.972.459a3.254 3.254 0 0 1 1.377 1.36c.328.601.493 1.326.493 2.176V151h-1.921v-5.236c0-.839-.21-1.479-.629-1.921-.42-.453-.992-.68-1.717-.68-.726 0-1.304.227-1.734.68-.42.442-.629 1.082-.629 1.921V151h-1.938v-9.367h1.938v1.071a3.214 3.214 0 0 1 1.207-.901 3.947 3.947 0 0 1 1.581-.323Zm14.797.153V151h-1.938v-1.105a3.21 3.21 0 0 1-1.207.918 3.835 3.835 0 0 1-1.564.323c-.737 0-1.4-.153-1.989-.459a3.38 3.38 0 0 1-1.377-1.36c-.329-.601-.493-1.326-.493-2.176v-5.508h1.921v5.219c0 .839.209 1.485.629 1.938.419.442.991.663 1.717.663.725 0 1.297-.221 1.717-.663.43-.453.646-1.099.646-1.938v-5.219h1.938Zm6.62 9.52c-.884 0-1.683-.198-2.397-.595a4.413 4.413 0 0 1-1.683-1.7c-.408-.737-.612-1.587-.612-2.55 0-.952.209-1.796.629-2.533a4.338 4.338 0 0 1 1.717-1.7c.725-.397 1.535-.595 2.431-.595.895 0 1.705.198 2.431.595a4.351 4.351 0 0 1 1.717 1.7c.419.737.629 1.581.629 2.533s-.216 1.796-.646 2.533a4.517 4.517 0 0 1-1.768 1.717c-.737.397-1.553.595-2.448.595Zm0-1.683c.498 0 .963-.119 1.394-.357a2.703 2.703 0 0 0 1.071-1.071c.272-.476.408-1.054.408-1.734 0-.68-.131-1.252-.391-1.717-.261-.476-.607-.833-1.037-1.071a2.839 2.839 0 0 0-1.394-.357c-.499 0-.964.119-1.394.357-.42.238-.754.595-1.003 1.071-.25.465-.374 1.037-.374 1.717 0 1.009.255 1.791.765 2.346.521.544 1.173.816 1.955.816Zm15.261-7.837V151h-1.938v-1.105a3.21 3.21 0 0 1-1.207.918 3.835 3.835 0 0 1-1.564.323c-.737 0-1.4-.153-1.989-.459a3.38 3.38 0 0 1-1.377-1.36c-.329-.601-.493-1.326-.493-2.176v-5.508h1.921v5.219c0 .839.209 1.485.629 1.938.419.442.991.663 1.717.663.725 0 1.297-.221 1.717-.663.43-.453.646-1.099.646-1.938v-5.219h1.938Zm5.957 9.52c-.737 0-1.4-.13-1.989-.391-.578-.272-1.037-.635-1.377-1.088a2.748 2.748 0 0 1-.544-1.547h2.006c.034.397.221.731.561 1.003.351.261.787.391 1.309.391.544 0 .963-.102 1.258-.306.306-.215.459-.487.459-.816 0-.351-.17-.612-.51-.782-.329-.17-.856-.357-1.581-.561a15.457 15.457 0 0 1-1.717-.561 3.073 3.073 0 0 1-1.156-.833c-.318-.374-.476-.867-.476-1.479 0-.499.147-.952.442-1.36.294-.419.714-.748 1.258-.986.555-.238 1.19-.357 1.904-.357 1.065 0 1.921.272 2.567.816.657.533 1.008 1.264 1.054 2.193h-1.938c-.034-.419-.204-.754-.51-1.003-.306-.249-.72-.374-1.241-.374-.51 0-.901.096-1.173.289-.272.193-.408.448-.408.765 0 .249.09.459.272.629.181.17.402.306.663.408.26.091.646.21 1.156.357.68.181 1.235.368 1.666.561.442.181.821.453 1.139.816.317.363.481.844.493 1.445 0 .533-.148 1.009-.442 1.428-.295.419-.714.748-1.258.986-.533.238-1.162.357-1.887.357Zm9.451-4.879c0-.941.192-1.774.578-2.499a4.315 4.315 0 0 1 3.859-2.295c.725 0 1.365.147 1.921.442.566.295 1.003.652 1.309 1.071v-1.36h1.955v13.821h-1.955v-5.814c-.306.419-.748.776-1.326 1.071-.578.295-1.236.442-1.972.442a4.16 4.16 0 0 1-2.21-.612c-.658-.419-1.185-.997-1.581-1.734-.386-.748-.578-1.592-.578-2.533Zm7.667.034c0-.646-.136-1.207-.408-1.683a2.75 2.75 0 0 0-1.037-1.088 2.741 2.741 0 0 0-1.394-.374c-.499 0-.964.125-1.394.374-.431.238-.782.595-1.054 1.071-.261.465-.391 1.02-.391 1.666 0 .646.13 1.213.391 1.7.272.487.623.861 1.054 1.122.442.249.906.374 1.394.374.498 0 .963-.125 1.394-.374a2.75 2.75 0 0 0 1.037-1.088c.272-.487.408-1.054.408-1.7Zm12.983-4.675V151h-1.938v-1.105a3.203 3.203 0 0 1-1.207.918 3.832 3.832 0 0 1-1.564.323c-.737 0-1.4-.153-1.989-.459a3.38 3.38 0 0 1-1.377-1.36c-.329-.601-.493-1.326-.493-2.176v-5.508h1.921v5.219c0 .839.21 1.485.629 1.938.419.442.992.663 1.717.663.725 0 1.298-.221 1.717-.663.431-.453.646-1.099.646-1.938v-5.219h1.938Zm1.911 4.641c0-.941.193-1.774.578-2.499a4.329 4.329 0 0 1 1.598-1.683 4.28 4.28 0 0 1 2.244-.612c.737 0 1.377.147 1.921.442.556.283.998.64 1.326 1.071v-1.36h1.955V151h-1.955v-1.394c-.328.442-.776.81-1.343 1.105-.566.295-1.212.442-1.938.442a4.164 4.164 0 0 1-2.21-.612 4.545 4.545 0 0 1-1.598-1.734c-.385-.748-.578-1.592-.578-2.533Zm7.667.034c0-.646-.136-1.207-.408-1.683a2.737 2.737 0 0 0-1.037-1.088 2.736 2.736 0 0 0-1.394-.374c-.498 0-.963.125-1.394.374-.43.238-.782.595-1.054 1.071-.26.465-.391 1.02-.391 1.666 0 .646.131 1.213.391 1.7.272.487.624.861 1.054 1.122a2.8 2.8 0 0 0 1.394.374c.499 0 .964-.125 1.394-.374a2.737 2.737 0 0 0 1.037-1.088c.272-.487.408-1.054.408-1.7Zm6.439-7.888V151h-1.938v-12.58h1.938Zm3.53 1.972c-.351 0-.646-.119-.884-.357a1.201 1.201 0 0 1-.357-.884c0-.351.119-.646.357-.884s.533-.357.884-.357c.34 0 .629.119.867.357s.357.533.357.884-.119.646-.357.884a1.18 1.18 0 0 1-.867.357Zm.952 1.241V151h-1.938v-9.367h1.938Zm4.806 1.581v5.185c0 .351.079.606.238.765.17.147.453.221.85.221h1.19V151h-1.53c-.873 0-1.542-.204-2.006-.612-.465-.408-.697-1.071-.697-1.989v-5.185h-1.105v-1.581h1.105v-2.329h1.955v2.329h2.278v1.581h-2.278Zm12.496-1.581-5.746 13.77h-2.006l1.904-4.556-3.689-9.214h2.159l2.635 7.14 2.737-7.14h2.006Zm-165.78 25.675c0-.963.192-1.808.578-2.533a4.206 4.206 0 0 1 1.632-1.7c.691-.397 1.484-.595 2.38-.595 1.133 0 2.068.272 2.805.816.748.533 1.252 1.298 1.513 2.295h-2.091a2.211 2.211 0 0 0-.816-1.088c-.374-.261-.845-.391-1.411-.391-.794 0-1.428.283-1.904.85-.465.555-.697 1.337-.697 2.346 0 1.009.232 1.796.697 2.363.476.567 1.11.85 1.904.85 1.122 0 1.864-.493 2.227-1.479h2.091c-.272.952-.782 1.711-1.53 2.278-.748.555-1.678.833-2.788.833-.896 0-1.689-.198-2.38-.595a4.355 4.355 0 0 1-1.632-1.7c-.386-.737-.578-1.587-.578-2.55Zm15.684-4.828c.714 0 1.349.153 1.904.459a3.196 3.196 0 0 1 1.326 1.36c.329.601.493 1.326.493 2.176V172h-1.921v-5.236c0-.839-.21-1.479-.629-1.921-.419-.453-.992-.68-1.717-.68-.725 0-1.303.227-1.734.68-.419.442-.629 1.082-.629 1.921V172h-1.938v-12.58h1.938v4.301a3.256 3.256 0 0 1 1.241-.918 4.244 4.244 0 0 1 1.666-.323Zm14.78 4.607a6.1 6.1 0 0 1-.068.952h-7.157c.057.748.334 1.349.833 1.802.499.453 1.111.68 1.836.68 1.043 0 1.779-.436 2.21-1.309h2.091a4.246 4.246 0 0 1-1.547 2.125c-.737.544-1.655.816-2.754.816-.895 0-1.7-.198-2.414-.595a4.447 4.447 0 0 1-1.666-1.7c-.397-.737-.595-1.587-.595-2.55 0-.963.193-1.808.578-2.533a4.182 4.182 0 0 1 1.649-1.7c.714-.397 1.53-.595 2.448-.595.884 0 1.672.193 2.363.578.691.385 1.23.929 1.615 1.632.385.691.578 1.49.578 2.397Zm-2.023-.612c-.011-.714-.266-1.286-.765-1.717-.499-.431-1.116-.646-1.853-.646-.669 0-1.241.215-1.717.646-.476.419-.759.992-.85 1.717h5.185Zm3.284.833c0-.963.193-1.808.578-2.533a4.22 4.22 0 0 1 1.632-1.7c.691-.397 1.485-.595 2.38-.595 1.133 0 2.068.272 2.805.816.748.533 1.252 1.298 1.513 2.295h-2.091a2.211 2.211 0 0 0-.816-1.088c-.374-.261-.844-.391-1.411-.391-.793 0-1.428.283-1.904.85-.465.555-.697 1.337-.697 2.346 0 1.009.232 1.796.697 2.363.476.567 1.111.85 1.904.85 1.122 0 1.864-.493 2.227-1.479h2.091c-.272.952-.782 1.711-1.53 2.278-.748.555-1.677.833-2.788.833-.895 0-1.689-.198-2.38-.595a4.37 4.37 0 0 1-1.632-1.7c-.385-.737-.578-1.587-.578-2.55Zm14.546.017 4.318 4.675h-2.618l-3.468-4.029V172h-1.938v-12.58h1.938v7.31l3.4-4.097h2.686l-4.318 4.692Zm9.477-.051c0-.941.192-1.774.578-2.499a4.315 4.315 0 0 1 3.842-2.295c.736 0 1.377.147 1.921.442.555.283.997.64 1.326 1.071v-1.36h1.955V172h-1.955v-1.394c-.329.442-.777.81-1.343 1.105-.567.295-1.213.442-1.938.442a4.16 4.16 0 0 1-2.21-.612 4.53 4.53 0 0 1-1.598-1.734c-.386-.748-.578-1.592-.578-2.533Zm7.667.034c0-.646-.136-1.207-.408-1.683a2.75 2.75 0 0 0-1.037-1.088 2.741 2.741 0 0 0-1.394-.374c-.499 0-.964.125-1.394.374-.431.238-.782.595-1.054 1.071-.261.465-.391 1.02-.391 1.666 0 .646.13 1.213.391 1.7.272.487.623.861 1.054 1.122.442.249.906.374 1.394.374.498 0 .963-.125 1.394-.374a2.75 2.75 0 0 0 1.037-1.088c.272-.487.408-1.054.408-1.7Zm9.226-4.828c.737 0 1.394.153 1.972.459a3.254 3.254 0 0 1 1.377 1.36c.329.601.493 1.326.493 2.176V172h-1.921v-5.236c0-.839-.21-1.479-.629-1.921-.419-.453-.992-.68-1.717-.68-.725 0-1.303.227-1.734.68-.419.442-.629 1.082-.629 1.921V172h-1.938v-9.367h1.938v1.071c.317-.385.72-.686 1.207-.901a3.954 3.954 0 0 1 1.581-.323Zm5.668 4.794c0-.941.193-1.774.578-2.499a4.312 4.312 0 0 1 3.859-2.295c.612 0 1.213.136 1.802.408.601.261 1.077.612 1.428 1.054v-4.522h1.955V172h-1.955v-1.411c-.317.453-.759.827-1.326 1.122-.555.295-1.196.442-1.921.442a4.28 4.28 0 0 1-2.244-.612 4.537 4.537 0 0 1-1.598-1.734c-.385-.748-.578-1.592-.578-2.533Zm7.667.034c0-.646-.136-1.207-.408-1.683a2.744 2.744 0 0 0-1.037-1.088 2.739 2.739 0 0 0-1.394-.374c-.499 0-.963.125-1.394.374-.431.238-.782.595-1.054 1.071-.261.465-.391 1.02-.391 1.666 0 .646.13 1.213.391 1.7.272.487.623.861 1.054 1.122a2.8 2.8 0 0 0 1.394.374c.499 0 .963-.125 1.394-.374a2.744 2.744 0 0 0 1.037-1.088c.272-.487.408-1.054.408-1.7Zm12.844-3.094h-1.734V172h-1.955v-7.786h-1.105v-1.581h1.105v-.663c0-1.077.283-1.859.85-2.346.578-.499 1.479-.748 2.703-.748v1.615c-.59 0-1.003.113-1.241.34-.238.215-.357.595-.357 1.139v.663h1.734v1.581Zm10.302 2.873a6.1 6.1 0 0 1-.068.952h-7.157c.057.748.334 1.349.833 1.802.499.453 1.111.68 1.836.68 1.043 0 1.779-.436 2.21-1.309h2.091a4.246 4.246 0 0 1-1.547 2.125c-.737.544-1.655.816-2.754.816-.895 0-1.7-.198-2.414-.595a4.447 4.447 0 0 1-1.666-1.7c-.397-.737-.595-1.587-.595-2.55 0-.963.193-1.808.578-2.533a4.182 4.182 0 0 1 1.649-1.7c.714-.397 1.53-.595 2.448-.595.884 0 1.672.193 2.363.578.691.385 1.23.929 1.615 1.632.385.691.578 1.49.578 2.397Zm-2.023-.612c-.011-.714-.266-1.286-.765-1.717-.499-.431-1.116-.646-1.853-.646-.669 0-1.241.215-1.717.646-.476.419-.759.992-.85 1.717h5.185Zm12.515.612c0 .351-.022.669-.068.952h-7.157c.057.748.335 1.349.833 1.802.499.453 1.111.68 1.836.68 1.043 0 1.78-.436 2.21-1.309h2.091a4.246 4.246 0 0 1-1.547 2.125c-.736.544-1.654.816-2.754.816-.895 0-1.7-.198-2.414-.595a4.454 4.454 0 0 1-1.666-1.7c-.396-.737-.595-1.587-.595-2.55 0-.963.193-1.808.578-2.533a4.188 4.188 0 0 1 1.649-1.7c.714-.397 1.53-.595 2.448-.595.884 0 1.672.193 2.363.578a4.06 4.06 0 0 1 1.615 1.632c.386.691.578 1.49.578 2.397Zm-2.023-.612c-.011-.714-.266-1.286-.765-1.717-.498-.431-1.116-.646-1.853-.646-.668 0-1.241.215-1.717.646-.476.419-.759.992-.85 1.717h5.185Zm3.285.799c0-.941.192-1.774.578-2.499a4.315 4.315 0 0 1 3.859-2.295c.612 0 1.212.136 1.802.408.6.261 1.076.612 1.428 1.054v-4.522h1.955V172h-1.955v-1.411c-.318.453-.76.827-1.326 1.122-.556.295-1.196.442-1.921.442a4.28 4.28 0 0 1-2.244-.612 4.53 4.53 0 0 1-1.598-1.734c-.386-.748-.578-1.592-.578-2.533Zm7.667.034c0-.646-.136-1.207-.408-1.683a2.75 2.75 0 0 0-1.037-1.088 2.741 2.741 0 0 0-1.394-.374c-.499 0-.964.125-1.394.374-.431.238-.782.595-1.054 1.071-.261.465-.391 1.02-.391 1.666 0 .646.13 1.213.391 1.7.272.487.623.861 1.054 1.122.442.249.906.374 1.394.374.498 0 .963-.125 1.394-.374a2.75 2.75 0 0 0 1.037-1.088c.272-.487.408-1.054.408-1.7Zm6.438-3.281c.329-.453.776-.822 1.343-1.105a4.162 4.162 0 0 1 1.921-.442c.827 0 1.575.198 2.244.595.669.397 1.196.963 1.581 1.7.385.725.578 1.558.578 2.499 0 .941-.193 1.785-.578 2.533a4.367 4.367 0 0 1-1.598 1.734 4.193 4.193 0 0 1-2.227.612c-.725 0-1.371-.142-1.938-.425-.555-.283-.997-.646-1.326-1.088V172h-1.938v-12.58h1.938v4.607Zm5.695 3.247c0-.646-.136-1.201-.408-1.666a2.598 2.598 0 0 0-1.054-1.071 2.739 2.739 0 0 0-1.394-.374 2.8 2.8 0 0 0-1.394.374 2.86 2.86 0 0 0-1.054 1.088c-.261.476-.391 1.037-.391 1.683 0 .646.13 1.213.391 1.7a2.86 2.86 0 0 0 1.054 1.088 2.8 2.8 0 0 0 1.394.374c.499 0 .963-.125 1.394-.374a2.808 2.808 0 0 0 1.054-1.122c.272-.487.408-1.054.408-1.7Zm3.243 0c0-.941.192-1.774.578-2.499a4.315 4.315 0 0 1 3.842-2.295c.736 0 1.377.147 1.921.442.555.283.997.64 1.326 1.071v-1.36h1.955V172h-1.955v-1.394c-.329.442-.777.81-1.343 1.105-.567.295-1.213.442-1.938.442a4.16 4.16 0 0 1-2.21-.612 4.53 4.53 0 0 1-1.598-1.734c-.386-.748-.578-1.592-.578-2.533Zm7.667.034c0-.646-.136-1.207-.408-1.683a2.75 2.75 0 0 0-1.037-1.088 2.741 2.741 0 0 0-1.394-.374c-.499 0-.964.125-1.394.374-.431.238-.782.595-1.054 1.071-.261.465-.391 1.02-.391 1.666 0 .646.13 1.213.391 1.7.272.487.623.861 1.054 1.122.442.249.906.374 1.394.374.498 0 .963-.125 1.394-.374a2.75 2.75 0 0 0 1.037-1.088c.272-.487.408-1.054.408-1.7Zm3.854 0c0-.963.193-1.808.578-2.533a4.22 4.22 0 0 1 1.632-1.7c.691-.397 1.485-.595 2.38-.595 1.133 0 2.068.272 2.805.816.748.533 1.252 1.298 1.513 2.295h-2.091a2.211 2.211 0 0 0-.816-1.088c-.374-.261-.844-.391-1.411-.391-.793 0-1.428.283-1.904.85-.465.555-.697 1.337-.697 2.346 0 1.009.232 1.796.697 2.363.476.567 1.111.85 1.904.85 1.122 0 1.864-.493 2.227-1.479h2.091c-.272.952-.782 1.711-1.53 2.278-.748.555-1.677.833-2.788.833-.895 0-1.689-.198-2.38-.595a4.37 4.37 0 0 1-1.632-1.7c-.385-.737-.578-1.587-.578-2.55Zm14.545.017 4.318 4.675h-2.618l-3.468-4.029V172h-1.938v-12.58h1.938v7.31l3.4-4.097h2.686l-4.318 4.692Z" fill="#07122C"/><rect x="851" width="214" height="80" rx="40" fill="#E5EBFB"/><circle cx="891" cy="40" r="24" fill="#235ADC"/><mask id="d" style="mask-type:alpha" maskUnits="userSpaceOnUse" x="879" y="28" width="24" height="24"><path fill="#D9D9D9" d="M879 28h24v24h-24z"/></mask><g mask="url(#d)"><path d="m887 46-6-6 6-6 1.425 1.425-4.6 4.6L888.4 44.6 887 46Zm8 0-1.425-1.425 4.6-4.6L893.6 35.4 895 34l6 6-6 6Z" fill="#E5EBFB"/></g><path d="M939.018 24.749v3.468h4.08v1.581h-4.08v3.621h4.59V35h-6.528V23.168h6.528v1.581h-4.59Zm10.598 8.517 2.652-7.633h2.057L950.755 35h-2.312l-3.553-9.367h2.074l2.652 7.633Zm5.528-2.992c0-.94.193-1.774.578-2.499.397-.725.929-1.286 1.598-1.683a4.28 4.28 0 0 1 2.244-.612c.737 0 1.377.147 1.921.442.555.283.997.64 1.326 1.071v-1.36h1.955V35h-1.955v-1.394c-.329.442-.776.81-1.343 1.105-.567.295-1.213.442-1.938.442a4.162 4.162 0 0 1-2.21-.612 4.542 4.542 0 0 1-1.598-1.734c-.385-.748-.578-1.592-.578-2.533Zm7.667.034c0-.646-.136-1.207-.408-1.683a2.746 2.746 0 0 0-1.037-1.088 2.736 2.736 0 0 0-1.394-.374c-.499 0-.963.125-1.394.374-.431.238-.782.595-1.054 1.071-.261.465-.391 1.02-.391 1.666 0 .646.13 1.213.391 1.7.272.487.623.861 1.054 1.122.442.25.907.374 1.394.374.499 0 .963-.125 1.394-.374.431-.25.776-.612 1.037-1.088.272-.487.408-1.054.408-1.7Zm6.439-7.888V35h-1.938V22.42h1.938Zm11.027 3.213V35h-1.938v-1.105a3.197 3.197 0 0 1-1.207.918 3.827 3.827 0 0 1-1.564.323c-.737 0-1.4-.153-1.989-.459a3.383 3.383 0 0 1-1.377-1.36c-.329-.6-.493-1.326-.493-2.176v-5.508h1.921v5.219c0 .839.21 1.485.629 1.938.419.442.992.663 1.717.663.725 0 1.298-.221 1.717-.663.431-.453.646-1.1.646-1.938v-5.219h1.938Zm1.911 4.641c0-.94.193-1.774.578-2.499.397-.725.929-1.286 1.598-1.683a4.28 4.28 0 0 1 2.244-.612c.737 0 1.377.147 1.921.442.555.283.997.64 1.326 1.071v-1.36h1.955V35h-1.955v-1.394c-.329.442-.776.81-1.343 1.105-.567.295-1.213.442-1.938.442a4.162 4.162 0 0 1-2.21-.612 4.542 4.542 0 0 1-1.598-1.734c-.385-.748-.578-1.592-.578-2.533Zm7.667.034c0-.646-.136-1.207-.408-1.683a2.746 2.746 0 0 0-1.037-1.088 2.736 2.736 0 0 0-1.394-.374c-.499 0-.963.125-1.394.374-.431.238-.782.595-1.054 1.071-.261.465-.391 1.02-.391 1.666 0 .646.13 1.213.391 1.7.272.487.623.861 1.054 1.122.442.25.907.374 1.394.374.499 0 .963-.125 1.394-.374.431-.25.776-.612 1.037-1.088.272-.487.408-1.054.408-1.7Zm6.762-3.094v5.185c0 .351.079.606.238.765.17.147.453.221.85.221h1.19V35h-1.53c-.873 0-1.542-.204-2.006-.612-.465-.408-.697-1.071-.697-1.989v-5.185h-1.105v-1.581h1.105v-2.329h1.955v2.329h2.278v1.581h-2.278Zm12.653 2.873c0 .351-.03.669-.07.952h-7.16c.06.748.34 1.349.83 1.802.5.453 1.11.68 1.84.68 1.04 0 1.78-.436 2.21-1.309h2.09c-.28.861-.8 1.57-1.55 2.125-.73.544-1.65.816-2.75.816-.9 0-1.7-.198-2.41-.595a4.42 4.42 0 0 1-1.67-1.7c-.4-.737-.6-1.587-.6-2.55 0-.963.2-1.808.58-2.533.4-.737.95-1.303 1.65-1.7.72-.397 1.53-.595 2.45-.595.88 0 1.67.193 2.36.578.69.385 1.23.93 1.62 1.632.38.691.58 1.49.58 2.397Zm-2.03-.612c-.01-.714-.26-1.286-.76-1.717-.5-.43-1.12-.646-1.86-.646-.66 0-1.24.215-1.71.646-.48.42-.76.992-.85 1.717h5.18Zm12.41 5.678c-.88 0-1.68-.198-2.4-.595a4.445 4.445 0 0 1-1.68-1.7c-.41-.737-.61-1.587-.61-2.55 0-.952.21-1.796.63-2.533.42-.737.99-1.303 1.72-1.7.72-.397 1.53-.595 2.43-.595.89 0 1.7.198 2.43.595.72.397 1.3.963 1.71 1.7.42.737.63 1.581.63 2.533s-.21 1.796-.64 2.533a4.505 4.505 0 0 1-1.77 1.717c-.74.397-1.55.595-2.45.595Zm0-1.683c.5 0 .97-.119 1.4-.357.44-.238.79-.595 1.07-1.071.27-.476.4-1.054.4-1.734 0-.68-.13-1.252-.39-1.717-.26-.476-.6-.833-1.03-1.071-.43-.238-.9-.357-1.4-.357-.5 0-.96.119-1.39.357-.42.238-.75.595-1 1.071-.25.465-.38 1.037-.38 1.717 0 1.009.26 1.79.77 2.346.52.544 1.17.816 1.95.816Zm11.51-7.99c.73 0 1.39.153 1.97.459.59.306 1.05.76 1.37 1.36.33.6.5 1.326.5 2.176V35h-1.92v-5.236c0-.839-.21-1.479-.63-1.921-.42-.453-.99-.68-1.72-.68-.72 0-1.3.227-1.73.68-.42.442-.63 1.082-.63 1.921V35h-1.94v-9.367h1.94v1.071c.32-.385.72-.686 1.2-.901.5-.215 1.03-.323 1.59-.323ZM926.932 48.214v5.185c0 .351.079.606.238.765.17.147.453.221.85.221h1.19V56h-1.53c-.873 0-1.542-.204-2.006-.612-.465-.408-.697-1.071-.697-1.989v-5.185h-1.105v-1.581h1.105v-2.329h1.955v2.329h2.278v1.581h-2.278Zm12.649 2.873a6.1 6.1 0 0 1-.068.952h-7.157c.056.748.334 1.349.833 1.802.498.453 1.11.68 1.836.68 1.042 0 1.779-.436 2.21-1.309h2.091a4.252 4.252 0 0 1-1.547 2.125c-.737.544-1.655.816-2.754.816-.896 0-1.7-.198-2.414-.595a4.445 4.445 0 0 1-1.666-1.7c-.397-.737-.595-1.587-.595-2.55 0-.963.192-1.808.578-2.533a4.176 4.176 0 0 1 1.649-1.7c.714-.397 1.53-.595 2.448-.595.884 0 1.671.193 2.363.578.691.385 1.229.93 1.615 1.632.385.691.578 1.49.578 2.397Zm-2.023-.612c-.012-.714-.267-1.286-.765-1.717-.499-.43-1.117-.646-1.853-.646-.669 0-1.241.215-1.717.646-.476.42-.76.992-.85 1.717h5.185Zm3.284.833c0-.963.193-1.808.578-2.533a4.22 4.22 0 0 1 1.632-1.7c.691-.397 1.485-.595 2.38-.595 1.133 0 2.068.272 2.805.816.748.533 1.252 1.298 1.513 2.295h-2.091a2.211 2.211 0 0 0-.816-1.088c-.374-.26-.844-.391-1.411-.391-.793 0-1.428.283-1.904.85-.465.555-.697 1.337-.697 2.346 0 1.009.232 1.796.697 2.363.476.567 1.111.85 1.904.85 1.122 0 1.864-.493 2.227-1.479h2.091c-.272.952-.782 1.711-1.53 2.278-.748.555-1.677.833-2.788.833-.895 0-1.689-.198-2.38-.595a4.367 4.367 0 0 1-1.632-1.7c-.385-.737-.578-1.587-.578-2.55Zm15.684-4.828c.714 0 1.349.153 1.904.459.567.306 1.009.76 1.326 1.36.329.6.493 1.326.493 2.176V56h-1.921v-5.236c0-.839-.209-1.479-.629-1.921-.419-.453-.991-.68-1.717-.68-.725 0-1.303.227-1.734.68-.419.442-.629 1.082-.629 1.921V56h-1.938V43.42h1.938v4.301a3.27 3.27 0 0 1 1.241-.918 4.242 4.242 0 0 1 1.666-.323Zm10.921 0c.737 0 1.394.153 1.972.459.59.306 1.049.76 1.377 1.36.329.6.493 1.326.493 2.176V56h-1.921v-5.236c0-.839-.209-1.479-.629-1.921-.419-.453-.991-.68-1.717-.68-.725 0-1.303.227-1.734.68-.419.442-.629 1.082-.629 1.921V56h-1.938v-9.367h1.938v1.071a3.23 3.23 0 0 1 1.207-.901 3.949 3.949 0 0 1 1.581-.323Zm7.3-1.088c-.351 0-.646-.119-.884-.357a1.2 1.2 0 0 1-.357-.884 1.2 1.2 0 0 1 .357-.884c.238-.238.533-.357.884-.357.34 0 .629.119.867.357a1.2 1.2 0 0 1 .357.884 1.2 1.2 0 0 1-.357.884 1.18 1.18 0 0 1-.867.357Zm.952 1.241V56h-1.938v-9.367h1.938Zm1.899 4.675c0-.963.192-1.808.578-2.533a4.206 4.206 0 0 1 1.632-1.7c.691-.397 1.484-.595 2.38-.595 1.133 0 2.068.272 2.805.816.748.533 1.252 1.298 1.513 2.295h-2.091a2.211 2.211 0 0 0-.816-1.088c-.374-.26-.845-.391-1.411-.391-.794 0-1.428.283-1.904.85-.465.555-.697 1.337-.697 2.346 0 1.009.232 1.796.697 2.363.476.567 1.11.85 1.904.85 1.122 0 1.864-.493 2.227-1.479h2.091c-.272.952-.782 1.711-1.53 2.278-.748.555-1.678.833-2.788.833-.896 0-1.689-.198-2.38-.595a4.353 4.353 0 0 1-1.632-1.7c-.386-.737-.578-1.587-.578-2.55Zm10.193-.034c0-.94.193-1.774.578-2.499.397-.725.929-1.286 1.598-1.683a4.28 4.28 0 0 1 2.244-.612c.737 0 1.377.147 1.921.442.555.283.997.64 1.326 1.071v-1.36h1.955V56h-1.955v-1.394c-.329.442-.776.81-1.343 1.105-.567.295-1.213.442-1.938.442a4.162 4.162 0 0 1-2.21-.612 4.542 4.542 0 0 1-1.598-1.734c-.385-.748-.578-1.592-.578-2.533Zm7.667.034c0-.646-.136-1.207-.408-1.683a2.746 2.746 0 0 0-1.037-1.088 2.736 2.736 0 0 0-1.394-.374c-.499 0-.963.125-1.394.374-.431.238-.782.595-1.054 1.071-.261.465-.391 1.02-.391 1.666 0 .646.13 1.213.391 1.7.272.487.623.861 1.054 1.122.442.25.907.374 1.394.374.499 0 .963-.125 1.394-.374.431-.25.776-.612 1.037-1.088.272-.487.408-1.054.408-1.7Zm6.442-7.888V56h-1.941V43.42h1.941Zm10.36 12.733c-.74 0-1.4-.13-1.99-.391-.58-.272-1.04-.635-1.38-1.088-.34-.465-.52-.98-.54-1.547h2c.04.397.22.731.56 1.003.36.26.79.391 1.31.391.55 0 .97-.102 1.26-.306.31-.215.46-.487.46-.816 0-.351-.17-.612-.51-.782-.33-.17-.86-.357-1.58-.561-.7-.193-1.28-.38-1.72-.561a3.01 3.01 0 0 1-1.15-.833c-.32-.374-.48-.867-.48-1.479 0-.499.15-.952.44-1.36.3-.42.72-.748 1.26-.986.56-.238 1.19-.357 1.9-.357 1.07 0 1.93.272 2.57.816.66.533 1.01 1.264 1.06 2.193h-1.94c-.04-.42-.21-.754-.51-1.003-.31-.25-.72-.374-1.24-.374-.51 0-.9.096-1.18.289a.892.892 0 0 0-.4.765c0 .25.09.459.27.629.18.17.4.306.66.408.26.09.65.21 1.16.357.68.181 1.23.368 1.66.561.44.181.82.453 1.14.816.32.363.48.844.49 1.445 0 .533-.14 1.009-.44 1.428-.29.42-.71.748-1.26.986-.53.238-1.16.357-1.88.357Zm9.38-4.828 4.32 4.675h-2.62l-3.46-4.029V56h-1.94V43.42h1.94v7.31l3.4-4.097h2.68l-4.32 4.692Zm6.7-5.933c-.35 0-.65-.119-.89-.357a1.227 1.227 0 0 1-.35-.884c0-.351.12-.646.35-.884.24-.238.54-.357.89-.357.34 0 .63.119.86.357.24.238.36.533.36.884s-.12.646-.36.884c-.23.238-.52.357-.86.357Zm.95 1.241V56h-1.94v-9.367h1.94Zm4.48-3.213V56h-1.94V43.42h1.94Zm4.48 0V56h-1.93V43.42h1.93Zm5.95 12.733c-.74 0-1.4-.13-1.99-.391-.58-.272-1.04-.635-1.38-1.088-.34-.465-.52-.98-.54-1.547h2c.04.397.23.731.57 1.003.35.26.78.391 1.3.391.55 0 .97-.102 1.26-.306.31-.215.46-.487.46-.816 0-.351-.17-.612-.51-.782-.33-.17-.85-.357-1.58-.561-.7-.193-1.27-.38-1.72-.561a3.088 3.088 0 0 1-1.15-.833c-.32-.374-.48-.867-.48-1.479 0-.499.15-.952.44-1.36.3-.42.72-.748 1.26-.986.56-.238 1.19-.357 1.91-.357 1.06 0 1.92.272 2.56.816.66.533 1.01 1.264 1.06 2.193h-1.94c-.04-.42-.21-.754-.51-1.003-.31-.25-.72-.374-1.24-.374-.51 0-.9.096-1.18.289a.892.892 0 0 0-.4.765c0 .25.09.459.27.629.18.17.4.306.66.408.26.09.65.21 1.16.357.68.181 1.23.368 1.66.561.45.181.83.453 1.14.816.32.363.48.844.5 1.445 0 .533-.15 1.009-.45 1.428-.29.42-.71.748-1.25.986s-1.17.357-1.89.357Z" fill="#07122C"/><rect width="181" height="80" rx="40" fill="#E5EBFB"/><circle cx="40" cy="40" r="24" fill="#235ADC"/><mask id="e" style="mask-type:alpha" maskUnits="userSpaceOnUse" x="28" y="28" width="24" height="24"><path fill="#D3DEF8" d="M28 28h24v24H28z"/></mask><g mask="url(#e)"><path d="M28 46v-1.575c0-.733.371-1.321 1.113-1.763C29.854 42.221 30.817 42 32 42c.217 0 .425.004.625.012.2.009.392.03.575.063a3.789 3.789 0 0 0-.525 1.075 4.185 4.185 0 0 0-.175 1.225V46H28Zm6 0v-1.625c0-1.083.554-1.958 1.663-2.625 1.108-.667 2.554-1 4.337-1 1.8 0 3.25.333 4.35 1 1.1.667 1.65 1.542 1.65 2.625V46H34Zm13.5 0v-1.625c0-.433-.054-.842-.163-1.225a3.903 3.903 0 0 0-.487-1.075c.183-.033.371-.054.563-.063.191-.008.387-.012.587-.012 1.2 0 2.167.22 2.9.662.733.442 1.1 1.03 1.1 1.763V46h-4.5ZM40 42.75c-.95 0-1.8.125-2.55.375-.75.25-1.192.542-1.325.875H43.9c-.15-.333-.596-.625-1.338-.875-.741-.25-1.595-.375-2.562-.375ZM32 41c-.55 0-1.02-.196-1.412-.588A1.923 1.923 0 0 1 30 39c0-.567.196-1.042.588-1.425A1.945 1.945 0 0 1 32 37c.567 0 1.042.192 1.425.575.383.383.575.858.575 1.425 0 .55-.192 1.02-.575 1.412A1.913 1.913 0 0 1 32 41Zm16 0c-.55 0-1.021-.196-1.413-.588A1.925 1.925 0 0 1 46 39c0-.567.196-1.042.587-1.425A1.949 1.949 0 0 1 48 37c.567 0 1.042.192 1.425.575.383.383.575.858.575 1.425 0 .55-.192 1.02-.575 1.412A1.913 1.913 0 0 1 48 41Zm-8-1a2.893 2.893 0 0 1-2.125-.875A2.893 2.893 0 0 1 37 37c0-.85.292-1.563.875-2.138S39.167 34 40 34c.85 0 1.562.287 2.137.862S43 36.15 43 37c0 .833-.288 1.542-.863 2.125S40.85 40 40 40Zm0-4a.967.967 0 0 0-.712.287A.968.968 0 0 0 39 37c0 .283.096.52.288.712A.965.965 0 0 0 40 38a.968.968 0 0 0 .713-.288A.967.967 0 0 0 41 37a.97.97 0 0 0-.287-.713A.97.97 0 0 0 40 36Z" fill="#E5EBFB"/></g><path d="M80.162 43.228h-4.656l-.8 2.272h-1.904l3.984-11.136h2.112L82.882 45.5h-1.92l-.8-2.272Zm-.512-1.488-1.808-5.168-1.824 5.168h3.632Zm6.788-3.76c.31-.405.73-.747 1.264-1.024.533-.277 1.136-.416 1.808-.416.768 0 1.467.192 2.096.576.64.373 1.141.901 1.504 1.584s.544 1.467.544 2.352c0 .885-.181 1.68-.544 2.384a4.117 4.117 0 0 1-1.504 1.632 3.946 3.946 0 0 1-2.096.576c-.672 0-1.27-.133-1.792-.4a4.11 4.11 0 0 1-1.28-1.024v5.472h-1.824V36.684h1.824v1.296Zm5.36 3.072c0-.608-.128-1.13-.384-1.568a2.443 2.443 0 0 0-.992-1.008 2.574 2.574 0 0 0-1.312-.352c-.459 0-.896.117-1.312.352a2.696 2.696 0 0 0-.992 1.024c-.245.448-.368.976-.368 1.584 0 .608.123 1.141.368 1.6.256.448.587.79.992 1.024.416.235.853.352 1.312.352.47 0 .907-.117 1.312-.352.416-.245.747-.597.992-1.056.256-.459.384-.992.384-1.6Zm5.484-3.072c.31-.405.73-.747 1.264-1.024.533-.277 1.136-.416 1.808-.416.768 0 1.466.192 2.096.576a3.92 3.92 0 0 1 1.504 1.584c.362.683.544 1.467.544 2.352 0 .885-.182 1.68-.544 2.384a4.12 4.12 0 0 1-1.504 1.632 3.947 3.947 0 0 1-2.096.576c-.672 0-1.27-.133-1.792-.4a4.11 4.11 0 0 1-1.28-1.024v5.472h-1.824V36.684h1.824v1.296Zm5.36 3.072c0-.608-.128-1.13-.384-1.568a2.447 2.447 0 0 0-.992-1.008 2.577 2.577 0 0 0-1.312-.352c-.459 0-.896.117-1.312.352a2.697 2.697 0 0 0-.992 1.024c-.246.448-.368.976-.368 1.584 0 .608.123 1.141.368 1.6.256.448.587.79.992 1.024.416.235.853.352 1.312.352.469 0 .906-.117 1.312-.352.416-.245.746-.597.992-1.056.256-.459.384-.992.384-1.6Zm5.484-7.392V45.5h-1.824V33.66h1.824Zm3.322 1.856c-.33 0-.608-.112-.832-.336a1.13 1.13 0 0 1-.336-.832c0-.33.112-.608.336-.832.224-.224.502-.336.832-.336.32 0 .592.112.816.336.224.224.336.501.336.832 0 .33-.112.608-.336.832a1.11 1.11 0 0 1-.816.336Zm.896 1.168V45.5h-1.824v-8.816h1.824Zm1.787 4.4c0-.907.181-1.701.544-2.384a3.963 3.963 0 0 1 1.536-1.6c.651-.373 1.397-.56 2.24-.56 1.067 0 1.947.256 2.64.768.704.501 1.179 1.221 1.424 2.16h-1.968a2.081 2.081 0 0 0-.768-1.024c-.352-.245-.795-.368-1.328-.368-.747 0-1.344.267-1.792.8-.437.523-.656 1.259-.656 2.208 0 .95.219 1.69.656 2.224.448.533 1.045.8 1.792.8 1.056 0 1.755-.464 2.096-1.392h1.968c-.256.896-.736 1.61-1.44 2.144-.704.523-1.579.784-2.624.784-.843 0-1.589-.187-2.24-.56a4.101 4.101 0 0 1-1.536-1.6c-.363-.693-.544-1.493-.544-2.4Zm9.594-.032c0-.885.181-1.67.544-2.352a4.056 4.056 0 0 1 3.616-2.16c.693 0 1.296.139 1.808.416.522.267.938.603 1.248 1.008v-1.28h1.84V45.5h-1.84v-1.312c-.31.416-.731.763-1.264 1.04-.534.277-1.142.416-1.824.416a3.914 3.914 0 0 1-2.08-.576 4.268 4.268 0 0 1-1.504-1.632c-.363-.704-.544-1.499-.544-2.384Zm7.216.032c0-.608-.128-1.136-.384-1.584a2.591 2.591 0 0 0-.976-1.024 2.577 2.577 0 0 0-1.312-.352c-.47 0-.907.117-1.312.352-.406.224-.736.56-.992 1.008-.246.437-.368.96-.368 1.568 0 .608.122 1.141.368 1.6.256.459.586.81.992 1.056a2.63 2.63 0 0 0 1.312.352c.469 0 .906-.117 1.312-.352.405-.235.73-.576.976-1.024.256-.459.384-.992.384-1.6Zm6.364-2.912v4.88c0 .33.074.57.224.72.16.139.426.208.8.208h1.12v1.52h-1.44c-.822 0-1.451-.192-1.888-.576-.438-.384-.656-1.008-.656-1.872v-4.88h-1.04v-1.488h1.04v-2.192h1.84v2.192h2.144v1.488h-2.144Zm4.753-2.656a1.13 1.13 0 0 1-.832-.336 1.13 1.13 0 0 1-.336-.832c0-.33.112-.608.336-.832a1.13 1.13 0 0 1 .832-.336c.32 0 .592.112.816.336.224.224.336.501.336.832 0 .33-.112.608-.336.832a1.11 1.11 0 0 1-.816.336Zm.896 1.168V45.5h-1.824v-8.816h1.824Zm6.218 8.96c-.832 0-1.584-.187-2.256-.56a4.151 4.151 0 0 1-1.584-1.6c-.384-.693-.576-1.493-.576-2.4 0-.896.198-1.69.592-2.384a4.095 4.095 0 0 1 1.616-1.6c.683-.373 1.446-.56 2.288-.56.843 0 1.606.187 2.288.56a4.083 4.083 0 0 1 1.616 1.6c.395.693.592 1.488.592 2.384 0 .896-.202 1.69-.608 2.384a4.25 4.25 0 0 1-1.664 1.616 4.78 4.78 0 0 1-2.304.56Zm0-1.584c.47 0 .907-.112 1.312-.336.416-.224.752-.56 1.008-1.008.256-.448.384-.992.384-1.632 0-.64-.122-1.179-.368-1.616a2.466 2.466 0 0 0-.976-1.008 2.666 2.666 0 0 0-1.312-.336c-.469 0-.906.112-1.312.336-.394.224-.709.56-.944 1.008-.234.437-.352.976-.352 1.616 0 .95.24 1.685.72 2.208.491.512 1.104.768 1.84.768ZM160 36.54c.693 0 1.312.144 1.856.432.554.288.986.715 1.296 1.28.309.565.464 1.248.464 2.048v5.2h-1.808v-4.928c0-.79-.198-1.392-.592-1.808-.395-.427-.934-.64-1.616-.64-.683 0-1.227.213-1.632.64-.395.416-.592 1.019-.592 1.808V45.5h-1.824v-8.816h1.824v1.008a3.025 3.025 0 0 1 1.136-.848A3.71 3.71 0 0 1 160 36.54Z" fill="#07122C"/><rect x="241" width="169" height="80" rx="40" fill="#E5EBFB"/><circle cx="281" cy="40" r="24" fill="#235ADC"/><mask id="f" style="mask-type:alpha" maskUnits="userSpaceOnUse" x="269" y="28" width="24" height="24"><path fill="#D9D9D9" d="M269 28h24v24h-24z"/></mask><g mask="url(#f)"><path d="M280 40c-1.1 0-2.042-.392-2.825-1.175C276.392 38.042 276 37.1 276 36s.392-2.042 1.175-2.825C277.958 32.392 278.9 32 280 32s2.042.392 2.825 1.175C283.608 33.958 284 34.9 284 36s-.392 2.042-1.175 2.825C282.042 39.608 281.1 40 280 40Zm0-2c.55 0 1.021-.196 1.413-.588.391-.391.587-.862.587-1.412 0-.55-.196-1.02-.587-1.412A1.927 1.927 0 0 0 280 34c-.55 0-1.021.196-1.412.588A1.923 1.923 0 0 0 278 36c0 .55.196 1.02.588 1.412.391.392.862.588 1.412.588Zm11.1 13.5-3.2-3.2c-.35.2-.725.367-1.125.5s-.825.2-1.275.2c-1.25 0-2.313-.437-3.188-1.312S281 45.75 281 44.5c0-1.25.437-2.313 1.312-3.188S284.25 40 285.5 40c1.25 0 2.313.437 3.188 1.312S290 43.25 290 44.5c0 .45-.067.875-.2 1.275-.133.4-.3.775-.5 1.125l3.2 3.2-1.4 1.4Zm-5.6-4.5c.7 0 1.292-.242 1.775-.725A2.415 2.415 0 0 0 288 44.5c0-.7-.242-1.292-.725-1.775-.483-.483-1.075-.725-1.775-.725s-1.292.242-1.775.725A2.415 2.415 0 0 0 283 44.5c0 .7.242 1.292.725 1.775.483.483 1.075.725 1.775.725ZM272 48v-2.775c0-.567.142-1.092.425-1.575a2.77 2.77 0 0 1 1.175-1.1c.85-.433 1.808-.8 2.875-1.1 1.067-.3 2.25-.45 3.55-.45-.2.3-.371.62-.512.962a6.522 6.522 0 0 0-.338 1.063c-1 .083-1.892.254-2.675.512-.783.259-1.442.53-1.975.813a.9.9 0 0 0-.387.362c-.092.159-.138.33-.138.513V46h5.175c.083.367.196.717.338 1.05.141.333.312.65.512.95H272Z" fill="#E5EBFB"/></g><path d="M317.872 45.612c-.747 0-1.419-.128-2.016-.384-.598-.267-1.067-.64-1.408-1.12-.342-.48-.512-1.04-.512-1.68h1.952c.042.48.229.875.56 1.184.341.31.816.464 1.424.464.629 0 1.12-.15 1.472-.448.352-.31.528-.704.528-1.184 0-.373-.112-.677-.336-.912a2.12 2.12 0 0 0-.816-.544c-.32-.128-.768-.267-1.344-.416a13.923 13.923 0 0 1-1.776-.576 3.006 3.006 0 0 1-1.152-.928c-.32-.416-.48-.97-.48-1.664 0-.64.16-1.2.48-1.68.32-.48.768-.848 1.344-1.104.576-.256 1.242-.384 2-.384 1.077 0 1.957.272 2.64.816.693.533 1.077 1.27 1.152 2.208h-2.016c-.032-.405-.224-.752-.576-1.04-.352-.288-.816-.432-1.392-.432-.523 0-.95.133-1.28.4-.331.267-.496.65-.496 1.152 0 .341.101.624.304.848.213.213.48.384.8.512.32.128.757.267 1.312.416.736.203 1.333.405 1.792.608.469.203.864.517 1.184.944.33.416.496.976.496 1.68a3 3 0 0 1-.464 1.6c-.299.501-.742.907-1.328 1.216-.576.299-1.259.448-2.048.448Zm5.384-4.528c0-.907.181-1.701.544-2.384a3.963 3.963 0 0 1 1.536-1.6c.651-.373 1.397-.56 2.24-.56 1.067 0 1.947.256 2.64.768.704.501 1.179 1.221 1.424 2.16h-1.968a2.081 2.081 0 0 0-.768-1.024c-.352-.245-.795-.368-1.328-.368-.747 0-1.344.267-1.792.8-.437.523-.656 1.259-.656 2.208 0 .95.219 1.69.656 2.224.448.533 1.045.8 1.792.8 1.056 0 1.755-.464 2.096-1.392h1.968c-.256.896-.736 1.61-1.44 2.144-.704.523-1.579.784-2.624.784-.843 0-1.589-.187-2.24-.56a4.101 4.101 0 0 1-1.536-1.6c-.363-.693-.544-1.493-.544-2.4Zm12.026-3.12a2.811 2.811 0 0 1 1.056-1.04c.448-.256.976-.384 1.584-.384v1.888h-.464c-.715 0-1.259.181-1.632.544-.363.363-.544.992-.544 1.888v4.64h-1.824v-8.816h1.824v1.28Zm12.396 2.912c0 .33-.021.63-.064.896h-6.736c.054.704.315 1.27.784 1.696.47.427 1.046.64 1.728.64.982 0 1.675-.41 2.08-1.232h1.968a3.994 3.994 0 0 1-1.456 2c-.693.512-1.557.768-2.592.768-.842 0-1.6-.187-2.272-.56a4.187 4.187 0 0 1-1.568-1.6c-.373-.693-.56-1.493-.56-2.4 0-.907.182-1.701.544-2.384a3.942 3.942 0 0 1 1.552-1.6c.672-.373 1.44-.56 2.304-.56.832 0 1.574.181 2.224.544a3.825 3.825 0 0 1 1.52 1.536c.363.65.544 1.403.544 2.256Zm-1.904-.576c-.01-.672-.25-1.21-.72-1.616-.469-.405-1.05-.608-1.744-.608-.629 0-1.168.203-1.616.608-.448.395-.714.933-.8 1.616h4.88Zm11.779.576c0 .33-.021.63-.064.896h-6.736c.054.704.315 1.27.784 1.696.47.427 1.046.64 1.728.64.982 0 1.675-.41 2.08-1.232h1.968a3.994 3.994 0 0 1-1.456 2c-.693.512-1.557.768-2.592.768-.842 0-1.6-.187-2.272-.56a4.187 4.187 0 0 1-1.568-1.6c-.373-.693-.56-1.493-.56-2.4 0-.907.182-1.701.544-2.384a3.942 3.942 0 0 1 1.552-1.6c.672-.373 1.44-.56 2.304-.56.832 0 1.574.181 2.224.544a3.825 3.825 0 0 1 1.52 1.536c.363.65.544 1.403.544 2.256Zm-1.904-.576c-.01-.672-.25-1.21-.72-1.616-.469-.405-1.05-.608-1.744-.608-.629 0-1.168.203-1.616.608-.448.395-.714.933-.8 1.616h4.88Zm8.147-3.76c.694 0 1.312.144 1.856.432.555.288.987.715 1.296 1.28.31.565.464 1.248.464 2.048v5.2h-1.808v-4.928c0-.79-.197-1.392-.592-1.808-.394-.427-.933-.64-1.616-.64-.682 0-1.226.213-1.632.64-.394.416-.592 1.019-.592 1.808V45.5h-1.824v-8.816h1.824v1.008a3.04 3.04 0 0 1 1.136-.848c.47-.203.966-.304 1.488-.304Zm6.871-1.024a1.13 1.13 0 0 1-.832-.336 1.13 1.13 0 0 1-.336-.832c0-.33.112-.608.336-.832a1.13 1.13 0 0 1 .832-.336c.32 0 .592.112.816.336.224.224.336.501.336.832 0 .33-.112.608-.336.832a1.11 1.11 0 0 1-.816.336Zm.896 1.168V45.5h-1.824v-8.816h1.824Zm6.843-.144c.693 0 1.312.144 1.856.432.554.288.986.715 1.296 1.28.309.565.464 1.248.464 2.048v5.2h-1.808v-4.928c0-.79-.198-1.392-.592-1.808-.395-.427-.934-.64-1.616-.64-.683 0-1.227.213-1.632.64-.395.416-.592 1.019-.592 1.808V45.5h-1.824v-8.816h1.824v1.008a3.025 3.025 0 0 1 1.136-.848 3.71 3.71 0 0 1 1.488-.304Zm9.494 0c.683 0 1.286.139 1.808.416.534.267.95.603 1.248 1.008v-1.28h1.84v8.96c0 .81-.17 1.53-.512 2.16a3.67 3.67 0 0 1-1.488 1.504c-.64.363-1.408.544-2.304.544-1.194 0-2.186-.283-2.976-.848-.789-.555-1.237-1.312-1.344-2.272h1.808c.139.459.432.827.88 1.104.459.288 1.003.432 1.632.432.736 0 1.328-.224 1.776-.672.459-.448.688-1.099.688-1.952v-1.472c-.309.416-.73.768-1.264 1.056-.522.277-1.12.416-1.792.416a4.028 4.028 0 0 1-2.112-.576 4.283 4.283 0 0 1-1.504-1.632c-.362-.704-.544-1.499-.544-2.384 0-.885.182-1.67.544-2.352a4.07 4.07 0 0 1 3.616-2.16Zm3.056 4.544c0-.608-.128-1.136-.384-1.584a2.578 2.578 0 0 0-.976-1.024 2.571 2.571 0 0 0-1.312-.352c-.469 0-.906.117-1.312.352a2.58 2.58 0 0 0-.992 1.008c-.245.437-.368.96-.368 1.568 0 .608.123 1.141.368 1.6.256.459.587.81.992 1.056.416.235.854.352 1.312.352.47 0 .907-.117 1.312-.352.406-.235.731-.576.976-1.024.256-.459.384-.992.384-1.6Z" fill="#07122C"/><rect x="470" width="321" height="80" rx="40" fill="#E5EBFB"/><circle cx="510" cy="40" r="24" fill="#235ADC"/><mask id="g" style="mask-type:alpha" maskUnits="userSpaceOnUse" x="498" y="28" width="24" height="24"><path fill="#D9D9D9" d="M498 28h24v24h-24z"/></mask><g mask="url(#g)"><path d="M500 45V31c0-.283.096-.521.288-.713A.967.967 0 0 1 501 30h13c.283 0 .521.096.712.287.192.192.288.43.288.713v9c0 .283-.096.52-.288.712A.965.965 0 0 1 514 41h-10l-4 4Zm5 1a.969.969 0 0 1-.713-.288A.968.968 0 0 1 504 45v-2h13v-9h2c.283 0 .521.096.712.287.192.192.288.43.288.713v15l-4-4h-11Zm8-14h-11v8.175L503.175 39H513v-7Z" fill="#E5EBFB"/></g><path d="M545.501 24.352v3.264h3.84v1.488h-3.84v3.408h4.32V34h-6.144V22.864h6.144v1.488h-4.32Zm9.974 8.016 2.496-7.184h1.936L556.547 34h-2.176l-3.344-8.816h1.952l2.496 7.184Zm5.203-2.816c0-.885.181-1.67.544-2.352a4.063 4.063 0 0 1 3.616-2.16c.693 0 1.296.139 1.808.416.523.267.939.603 1.248 1.008v-1.28h1.84V34h-1.84v-1.312c-.309.416-.731.763-1.264 1.04s-1.141.416-1.824.416a3.917 3.917 0 0 1-2.08-.576 4.275 4.275 0 0 1-1.504-1.632c-.363-.704-.544-1.499-.544-2.384Zm7.216.032c0-.608-.128-1.136-.384-1.584a2.584 2.584 0 0 0-.976-1.024 2.574 2.574 0 0 0-1.312-.352c-.469 0-.907.117-1.312.352a2.58 2.58 0 0 0-.992 1.008c-.245.437-.368.96-.368 1.568 0 .608.123 1.141.368 1.6.256.459.587.81.992 1.056a2.63 2.63 0 0 0 1.312.352c.469 0 .907-.117 1.312-.352s.731-.576.976-1.024c.256-.459.384-.992.384-1.6Zm6.06-7.424V34h-1.824V22.16h1.824Zm10.378 3.024V34h-1.824v-1.04c-.288.363-.666.65-1.136.864a3.597 3.597 0 0 1-1.472.304c-.693 0-1.317-.144-1.872-.432a3.184 3.184 0 0 1-1.296-1.28c-.309-.565-.464-1.248-.464-2.048v-5.184h1.808v4.912c0 .79.198 1.397.592 1.824.395.416.934.624 1.616.624.683 0 1.222-.208 1.616-.624.406-.427.608-1.035.608-1.824v-4.912h1.824Zm1.799 4.368c0-.885.181-1.67.544-2.352a4.063 4.063 0 0 1 3.616-2.16c.693 0 1.296.139 1.808.416.523.267.939.603 1.248 1.008v-1.28h1.84V34h-1.84v-1.312c-.309.416-.731.763-1.264 1.04s-1.141.416-1.824.416a3.917 3.917 0 0 1-2.08-.576 4.275 4.275 0 0 1-1.504-1.632c-.363-.704-.544-1.499-.544-2.384Zm7.216.032c0-.608-.128-1.136-.384-1.584a2.584 2.584 0 0 0-.976-1.024 2.574 2.574 0 0 0-1.312-.352c-.469 0-.907.117-1.312.352a2.58 2.58 0 0 0-.992 1.008c-.245.437-.368.96-.368 1.568 0 .608.123 1.141.368 1.6.256.459.587.81.992 1.056a2.63 2.63 0 0 0 1.312.352c.469 0 .907-.117 1.312-.352s.731-.576.976-1.024c.256-.459.384-.992.384-1.6Zm6.364-2.912v4.88c0 .33.074.57.224.72.16.139.426.208.8.208h1.12V34h-1.44c-.822 0-1.451-.192-1.888-.576-.438-.384-.656-1.008-.656-1.872v-4.88h-1.04v-1.488h1.04v-2.192h1.84v2.192h2.144v1.488h-2.144Zm11.905 2.704c0 .33-.021.63-.064.896h-6.736c.053.704.315 1.27.784 1.696.469.427 1.045.64 1.728.64.981 0 1.675-.41 2.08-1.232h1.968a4 4 0 0 1-1.456 2c-.693.512-1.557.768-2.592.768-.843 0-1.6-.187-2.272-.56a4.187 4.187 0 0 1-1.568-1.6c-.373-.693-.56-1.493-.56-2.4 0-.907.181-1.701.544-2.384a3.936 3.936 0 0 1 1.552-1.6c.672-.373 1.44-.56 2.304-.56.832 0 1.573.181 2.224.544a3.83 3.83 0 0 1 1.52 1.536c.363.65.544 1.403.544 2.256Zm-1.904-.576c-.011-.672-.251-1.21-.72-1.616-.469-.405-1.051-.608-1.744-.608-.629 0-1.168.203-1.616.608-.448.395-.715.933-.8 1.616h4.88Zm11.679 5.344c-.832 0-1.584-.187-2.256-.56a4.151 4.151 0 0 1-1.584-1.6c-.384-.693-.576-1.493-.576-2.4 0-.896.198-1.69.592-2.384a4.095 4.095 0 0 1 1.616-1.6c.683-.373 1.446-.56 2.288-.56.843 0 1.606.187 2.288.56a4.083 4.083 0 0 1 1.616 1.6c.395.693.592 1.488.592 2.384 0 .896-.202 1.69-.608 2.384a4.25 4.25 0 0 1-1.664 1.616 4.78 4.78 0 0 1-2.304.56Zm0-1.584c.47 0 .907-.112 1.312-.336.416-.224.752-.56 1.008-1.008.256-.448.384-.992.384-1.632 0-.64-.122-1.179-.368-1.616a2.466 2.466 0 0 0-.976-1.008 2.666 2.666 0 0 0-1.312-.336c-.469 0-.906.112-1.312.336-.394.224-.709.56-.944 1.008-.234.437-.352.976-.352 1.616 0 .95.24 1.685.72 2.208.491.512 1.104.768 1.84.768Zm10.827-7.52c.694 0 1.312.144 1.856.432.555.288.987.715 1.296 1.28.31.565.464 1.248.464 2.048V34h-1.808v-4.928c0-.79-.197-1.392-.592-1.808-.394-.427-.933-.64-1.616-.64-.682 0-1.226.213-1.632.64-.394.416-.592 1.019-.592 1.808V34h-1.824v-8.816h1.824v1.008a3.04 3.04 0 0 1 1.136-.848c.47-.203.966-.304 1.488-.304Zm9.491 4.544c0-.907.182-1.701.544-2.384a3.976 3.976 0 0 1 1.536-1.6c.651-.373 1.398-.56 2.24-.56 1.067 0 1.947.256 2.64.768.704.501 1.179 1.221 1.424 2.16h-1.968a2.081 2.081 0 0 0-.768-1.024c-.352-.245-.794-.368-1.328-.368-.746 0-1.344.267-1.792.8-.437.523-.656 1.259-.656 2.208 0 .95.219 1.69.656 2.224.448.533 1.046.8 1.792.8 1.056 0 1.755-.464 2.096-1.392h1.968c-.256.896-.736 1.61-1.44 2.144-.704.523-1.578.784-2.624.784-.842 0-1.589-.187-2.24-.56a4.115 4.115 0 0 1-1.536-1.6c-.362-.693-.544-1.493-.544-2.4Zm14.026 4.56c-.832 0-1.584-.187-2.256-.56a4.151 4.151 0 0 1-1.584-1.6c-.384-.693-.576-1.493-.576-2.4 0-.896.197-1.69.592-2.384a4.09 4.09 0 0 1 1.616-1.6c.683-.373 1.445-.56 2.288-.56.843 0 1.605.187 2.288.56a4.09 4.09 0 0 1 1.616 1.6c.395.693.592 1.488.592 2.384 0 .896-.203 1.69-.608 2.384a4.25 4.25 0 0 1-1.664 1.616 4.78 4.78 0 0 1-2.304.56Zm0-1.584a2.67 2.67 0 0 0 1.312-.336c.416-.224.752-.56 1.008-1.008.256-.448.384-.992.384-1.632 0-.64-.123-1.179-.368-1.616a2.473 2.473 0 0 0-.976-1.008 2.67 2.67 0 0 0-1.312-.336 2.67 2.67 0 0 0-1.312.336c-.395.224-.709.56-.944 1.008-.235.437-.352.976-.352 1.616 0 .95.24 1.685.72 2.208.491.512 1.104.768 1.84.768Zm17.051-7.52c.693 0 1.312.144 1.856.432.555.288.987.715 1.296 1.28.32.565.48 1.248.48 2.048V34h-1.808v-4.928c0-.79-.197-1.392-.592-1.808-.395-.427-.933-.64-1.616-.64s-1.227.213-1.632.64c-.395.416-.592 1.019-.592 1.808V34h-1.808v-4.928c0-.79-.197-1.392-.592-1.808-.395-.427-.933-.64-1.616-.64s-1.227.213-1.632.64c-.395.416-.592 1.019-.592 1.808V34h-1.824v-8.816h1.824v1.008a3.033 3.033 0 0 1 1.136-.848 3.6 3.6 0 0 1 1.472-.304c.704 0 1.333.15 1.888.448.555.299.981.73 1.28 1.296.267-.533.683-.955 1.248-1.264a3.64 3.64 0 0 1 1.824-.48Zm16.625 0c.693 0 1.312.144 1.856.432.555.288.987.715 1.296 1.28.32.565.48 1.248.48 2.048V34h-1.808v-4.928c0-.79-.197-1.392-.592-1.808-.395-.427-.933-.64-1.616-.64s-1.227.213-1.632.64c-.395.416-.592 1.019-.592 1.808V34h-1.808v-4.928c0-.79-.197-1.392-.592-1.808-.395-.427-.933-.64-1.616-.64s-1.227.213-1.632.64c-.395.416-.592 1.019-.592 1.808V34h-1.824v-8.816h1.824v1.008a3.033 3.033 0 0 1 1.136-.848 3.6 3.6 0 0 1 1.472-.304c.704 0 1.333.15 1.888.448.555.299.981.73 1.28 1.296.267-.533.683-.955 1.248-1.264a3.64 3.64 0 0 1 1.824-.48Zm13.937.144V34h-1.824v-1.04c-.288.363-.667.65-1.136.864a3.6 3.6 0 0 1-1.472.304c-.693 0-1.317-.144-1.872-.432a3.184 3.184 0 0 1-1.296-1.28c-.309-.565-.464-1.248-.464-2.048v-5.184h1.808v4.912c0 .79.197 1.397.592 1.824.395.416.933.624 1.616.624s1.221-.208 1.616-.624c.405-.427.608-1.035.608-1.824v-4.912h1.824Zm6.855-.144c.693 0 1.312.144 1.856.432.554.288.986.715 1.296 1.28.309.565.464 1.248.464 2.048V34h-1.808v-4.928c0-.79-.198-1.392-.592-1.808-.395-.427-.934-.64-1.616-.64-.683 0-1.227.213-1.632.64-.395.416-.592 1.019-.592 1.808V34h-1.824v-8.816h1.824v1.008a3.025 3.025 0 0 1 1.136-.848 3.71 3.71 0 0 1 1.488-.304Zm6.87-1.024c-.33 0-.608-.112-.832-.336a1.13 1.13 0 0 1-.336-.832c0-.33.112-.608.336-.832.224-.224.502-.336.832-.336.32 0 .592.112.816.336.224.224.336.501.336.832 0 .33-.112.608-.336.832a1.11 1.11 0 0 1-.816.336Zm.896 1.168V34h-1.824v-8.816h1.824Zm1.787 4.4c0-.907.181-1.701.544-2.384a3.963 3.963 0 0 1 1.536-1.6c.651-.373 1.397-.56 2.24-.56 1.067 0 1.947.256 2.64.768.704.501 1.179 1.221 1.424 2.16h-1.968a2.081 2.081 0 0 0-.768-1.024c-.352-.245-.795-.368-1.328-.368-.747 0-1.344.267-1.792.8-.437.523-.656 1.259-.656 2.208 0 .95.219 1.69.656 2.224.448.533 1.045.8 1.792.8 1.056 0 1.755-.464 2.096-1.392h1.968c-.256.896-.736 1.61-1.44 2.144-.704.523-1.579.784-2.624.784-.843 0-1.589-.187-2.24-.56a4.101 4.101 0 0 1-1.536-1.6c-.363-.693-.544-1.493-.544-2.4Zm9.594-.032c0-.885.181-1.67.544-2.352a4.056 4.056 0 0 1 3.616-2.16c.693 0 1.296.139 1.808.416.522.267.938.603 1.248 1.008v-1.28h1.84V34h-1.84v-1.312c-.31.416-.731.763-1.264 1.04-.534.277-1.142.416-1.824.416a3.914 3.914 0 0 1-2.08-.576 4.268 4.268 0 0 1-1.504-1.632c-.363-.704-.544-1.499-.544-2.384Zm7.216.032c0-.608-.128-1.136-.384-1.584a2.591 2.591 0 0 0-.976-1.024 2.577 2.577 0 0 0-1.312-.352c-.47 0-.907.117-1.312.352-.406.224-.736.56-.992 1.008-.246.437-.368.96-.368 1.568 0 .608.122 1.141.368 1.6.256.459.586.81.992 1.056a2.63 2.63 0 0 0 1.312.352c.469 0 .906-.117 1.312-.352.405-.235.73-.576.976-1.024.256-.459.384-.992.384-1.6Zm6.364-2.912v4.88c0 .33.074.57.224.72.16.139.426.208.8.208h1.12V34h-1.44c-.822 0-1.451-.192-1.888-.576-.438-.384-.656-1.008-.656-1.872v-4.88h-1.04v-1.488h1.04v-2.192h1.84v2.192h2.144v1.488h-2.144Zm4.753-2.656a1.13 1.13 0 0 1-.832-.336 1.13 1.13 0 0 1-.336-.832c0-.33.112-.608.336-.832a1.13 1.13 0 0 1 .832-.336c.32 0 .592.112.816.336.224.224.336.501.336.832 0 .33-.112.608-.336.832a1.11 1.11 0 0 1-.816.336Zm.896 1.168V34h-1.824v-8.816h1.824Zm6.218 8.96c-.832 0-1.584-.187-2.256-.56a4.151 4.151 0 0 1-1.584-1.6c-.384-.693-.576-1.493-.576-2.4 0-.896.198-1.69.592-2.384a4.095 4.095 0 0 1 1.616-1.6c.683-.373 1.446-.56 2.288-.56.843 0 1.606.187 2.288.56a4.083 4.083 0 0 1 1.616 1.6c.395.693.592 1.488.592 2.384 0 .896-.202 1.69-.608 2.384a4.25 4.25 0 0 1-1.664 1.616 4.78 4.78 0 0 1-2.304.56Zm0-1.584c.47 0 .907-.112 1.312-.336.416-.224.752-.56 1.008-1.008.256-.448.384-.992.384-1.632 0-.64-.122-1.179-.368-1.616a2.466 2.466 0 0 0-.976-1.008 2.666 2.666 0 0 0-1.312-.336c-.469 0-.906.112-1.312.336-.394.224-.709.56-.944 1.008-.234.437-.352.976-.352 1.616 0 .95.24 1.685.72 2.208.491.512 1.104.768 1.84.768Zm10.828-7.52c.693 0 1.312.144 1.856.432.554.288.986.715 1.296 1.28.309.565.464 1.248.464 2.048V34h-1.808v-4.928c0-.79-.198-1.392-.592-1.808-.395-.427-.934-.64-1.616-.64-.683 0-1.227.213-1.632.64-.395.416-.592 1.019-.592 1.808V34h-1.824v-8.816h1.824v1.008a3.025 3.025 0 0 1 1.136-.848 3.71 3.71 0 0 1 1.488-.304ZM602.873 53.552c0-.885.182-1.67.544-2.352a4.07 4.07 0 0 1 3.616-2.16c.694 0 1.296.139 1.808.416.523.267.939.603 1.248 1.008v-1.28h1.84V58h-1.84v-1.312c-.309.416-.73.763-1.264 1.04-.533.277-1.141.416-1.824.416a3.92 3.92 0 0 1-2.08-.576 4.283 4.283 0 0 1-1.504-1.632c-.362-.704-.544-1.499-.544-2.384Zm7.216.032c0-.608-.128-1.136-.384-1.584a2.578 2.578 0 0 0-.976-1.024 2.571 2.571 0 0 0-1.312-.352c-.469 0-.906.117-1.312.352a2.58 2.58 0 0 0-.992 1.008c-.245.437-.368.96-.368 1.568 0 .608.123 1.141.368 1.6.256.459.587.81.992 1.056.416.235.854.352 1.312.352.47 0 .907-.117 1.312-.352.406-.235.731-.576.976-1.024.256-.459.384-.992.384-1.6Zm8.684-4.544c.693 0 1.312.144 1.856.432.555.288.987.715 1.296 1.28.309.565.464 1.248.464 2.048V58h-1.808v-4.928c0-.79-.197-1.392-.592-1.808-.395-.427-.933-.64-1.616-.64s-1.227.213-1.632.64c-.395.416-.592 1.019-.592 1.808V58h-1.824v-8.816h1.824v1.008a3.033 3.033 0 0 1 1.136-.848 3.71 3.71 0 0 1 1.488-.304Zm5.335 4.512c0-.885.181-1.67.544-2.352a4.056 4.056 0 0 1 3.632-2.16 4.01 4.01 0 0 1 1.696.384c.565.245 1.013.576 1.344.992V46.16h1.84V58h-1.84v-1.328c-.299.427-.715.779-1.248 1.056-.523.277-1.126.416-1.808.416a4.028 4.028 0 0 1-2.112-.576 4.268 4.268 0 0 1-1.504-1.632c-.363-.704-.544-1.499-.544-2.384Zm7.216.032c0-.608-.128-1.136-.384-1.584a2.591 2.591 0 0 0-.976-1.024 2.577 2.577 0 0 0-1.312-.352c-.47 0-.907.117-1.312.352-.406.224-.736.56-.992 1.008-.246.437-.368.96-.368 1.568 0 .608.122 1.141.368 1.6.256.459.586.81.992 1.056a2.63 2.63 0 0 0 1.312.352c.469 0 .906-.117 1.312-.352.405-.235.73-.576.976-1.024.256-.459.384-.992.384-1.6Zm7.784 0c0-.907.181-1.701.544-2.384a3.963 3.963 0 0 1 1.536-1.6c.65-.373 1.397-.56 2.24-.56 1.066 0 1.946.256 2.64.768.704.501 1.178 1.221 1.424 2.16h-1.968a2.081 2.081 0 0 0-.768-1.024c-.352-.245-.795-.368-1.328-.368-.747 0-1.344.267-1.792.8-.438.523-.656 1.259-.656 2.208 0 .95.218 1.69.656 2.224.448.533 1.045.8 1.792.8 1.056 0 1.754-.464 2.096-1.392h1.968c-.256.896-.736 1.61-1.44 2.144-.704.523-1.579.784-2.624.784-.843 0-1.59-.187-2.24-.56a4.101 4.101 0 0 1-1.536-1.6c-.363-.693-.544-1.493-.544-2.4Zm18.185-4.4V58h-1.824v-1.04c-.288.363-.666.65-1.136.864a3.597 3.597 0 0 1-1.472.304c-.693 0-1.317-.144-1.872-.432a3.184 3.184 0 0 1-1.296-1.28c-.309-.565-.464-1.248-.464-2.048v-5.184h1.808v4.912c0 .79.198 1.397.592 1.824.395.416.934.624 1.616.624.683 0 1.222-.208 1.616-.624.406-.427.608-1.035.608-1.824v-4.912h1.824Zm4.231-3.024V58H659.7V46.16h1.824Zm4.523 4.512v4.88c0 .33.074.57.224.72.16.139.426.208.8.208h1.12V58h-1.44c-.822 0-1.451-.192-1.888-.576-.438-.384-.656-1.008-.656-1.872v-4.88h-1.04v-1.488h1.04v-2.192h1.84v2.192h2.144v1.488h-2.144Zm11.809-1.488V58h-1.824v-1.04c-.288.363-.667.65-1.136.864a3.6 3.6 0 0 1-1.472.304c-.693 0-1.317-.144-1.872-.432a3.184 3.184 0 0 1-1.296-1.28c-.309-.565-.464-1.248-.464-2.048v-5.184h1.808v4.912c0 .79.197 1.397.592 1.824.395.416.933.624 1.616.624s1.221-.208 1.616-.624c.405-.427.608-1.035.608-1.824v-4.912h1.824Zm4.231 1.28a2.811 2.811 0 0 1 1.056-1.04c.448-.256.976-.384 1.584-.384v1.888h-.464c-.715 0-1.259.181-1.632.544-.363.363-.544.992-.544 1.888V58h-1.824v-8.816h1.824v1.28Zm12.396 2.912c0 .33-.021.63-.064.896h-6.736c.053.704.315 1.27.784 1.696.469.427 1.045.64 1.728.64.981 0 1.675-.41 2.08-1.232h1.968a4 4 0 0 1-1.456 2c-.693.512-1.557.768-2.592.768-.843 0-1.6-.187-2.272-.56a4.187 4.187 0 0 1-1.568-1.6c-.373-.693-.56-1.493-.56-2.4 0-.907.181-1.701.544-2.384a3.936 3.936 0 0 1 1.552-1.6c.672-.373 1.44-.56 2.304-.56.832 0 1.573.181 2.224.544a3.83 3.83 0 0 1 1.52 1.536c.363.65.544 1.403.544 2.256Zm-1.904-.576c-.011-.672-.251-1.21-.72-1.616-.469-.405-1.051-.608-1.744-.608-.629 0-1.168.203-1.616.608-.448.395-.715.933-.8 1.616h4.88Zm11.551-2.128h-1.632V58h-1.84v-7.328h-1.04v-1.488h1.04v-.624c0-1.013.267-1.75.8-2.208.544-.47 1.392-.704 2.544-.704v1.52c-.554 0-.944.107-1.168.32-.224.203-.336.56-.336 1.072v.624h1.632v1.488Zm2.545-2.656a1.13 1.13 0 0 1-.832-.336 1.13 1.13 0 0 1-.336-.832c0-.33.112-.608.336-.832a1.13 1.13 0 0 1 .832-.336c.32 0 .592.112.816.336.224.224.336.501.336.832 0 .33-.112.608-.336.832a1.11 1.11 0 0 1-.816.336Zm.896 1.168V58h-1.824v-8.816h1.824Zm4.523 1.488v4.88c0 .33.074.57.224.72.16.139.426.208.8.208h1.12V58h-1.44c-.822 0-1.451-.192-1.888-.576-.438-.384-.656-1.008-.656-1.872v-4.88h-1.04v-1.488h1.04v-2.192h1.84v2.192h2.144v1.488h-2.144Z" fill="#07122C"/><g clip-path="url(#h)" fill="#404040"><path d="m208.76 49.3 8.871-10.65L208.76 28l14.239 10.65L208.76 49.3Z"/><path d="m199 49.3 8.871-10.65L199 28l14.24 10.65L199 49.3Z"/></g><g clip-path="url(#i)" fill="#404040"><path d="m436.76 49.3 8.871-10.65L436.76 28l14.239 10.65L436.76 49.3Z"/><path d="m427 49.3 8.871-10.65L427 28l14.24 10.65L427 49.3Z"/></g><g clip-path="url(#j)" fill="#404040"><path d="m817.76 49.3 8.871-10.65L817.76 28l14.239 10.65L817.76 49.3Z"/><path d="m808 49.3 8.871-10.65L808 28l14.24 10.65L808 49.3Z"/></g><g clip-path="url(#k)" fill="#404040"><path d="m940.24 166.299-8.871-10.649L940.24 145l-14.239 10.65 14.239 10.649Z"/><path d="m950 166.299-8.871-10.649L950 145l-14.24 10.65L950 166.299Z"/></g><g clip-path="url(#l)" fill="#404040"><path d="m656.24 166.299-8.871-10.649L656.24 145l-14.239 10.65 14.239 10.649Z"/><path d="m666 166.299-8.871-10.649L666 145l-14.24 10.65L666 166.299Z"/></g><g clip-path="url(#m)" fill="#404040"><path d="m399.24 166.299-8.871-10.649L399.24 145l-14.239 10.65 14.239 10.649Z"/><path d="m409 166.299-8.871-10.649L409 145l-14.24 10.65L409 166.299Z"/></g><path d="M1079 36.996c62 0 88.5 118.002-121.5 118" stroke="#404040" stroke-width="2" stroke-linecap="round" stroke-dasharray="5 5"/><defs><clipPath id="h"><path fill="#fff" transform="translate(199 28)" d="M0 0h24v21.299H0z"/></clipPath><clipPath id="i"><path fill="#fff" transform="translate(427 28)" d="M0 0h24v21.299H0z"/></clipPath><clipPath id="j"><path fill="#fff" transform="translate(808 28)" d="M0 0h24v21.299H0z"/></clipPath><clipPath id="k"><path fill="#fff" transform="matrix(-1 0 0 1 950 145)" d="M0 0h24v21.299H0z"/></clipPath><clipPath id="l"><path fill="#fff" transform="matrix(-1 0 0 1 666 145)" d="M0 0h24v21.299H0z"/></clipPath><clipPath id="m"><path fill="#fff" transform="matrix(-1 0 0 1 409 145)" d="M0 0h24v21.299H0z"/></clipPath></defs></svg>